<svg width="100%" height="100%" viewBox="0 0 3942 3998" version="1.1" xmlns="http://www.w3.org/2000/svg" xmlns:xlink="http://www.w3.org/1999/xlink" xml:space="preserve" style="fill-rule:evenodd;clip-rule:evenodd;stroke-linejoin:round;stroke-miterlimit:2;"><g><path d="M1999.882,3850.785c-9.277,-5.492 -17.626,-12.938 -23.925,-21.776c-63.283,9.793 -127.678,3.67 -190.132,17.728c-64.316,11.164 -130.295,19.973 -195.385,10.706c-42.574,-5.655 -59.837,-56.786 -45.976,-93.415c-68.736,-21.087 -152.606,-45.756 -188.966,-113.022c-12.247,4.948 -25.942,1.516 -33.367,-10.361c-39.805,-49.717 -7.841,-116.13 7.965,-169.578c-5.097,-4.277 -9.695,-9.187 -13.707,-14.514c-1.619,-2.141 -3.013,-4.491 -4.22,-6.964c-86.1,21.901 -109.888,-80.597 -75.622,-141.816c31.295,-58.205 96.295,-188.022 177.685,-155.001c48.65,-45.704 104.622,-31.302 105.964,39.181c27.231,11.431 39.024,50.188 30.356,77.567c-16.329,49.432 -40.759,96.082 -70.966,138.449c-0.339,8.755 -1.721,17.441 -3.324,26.126c-2.315,12.656 -5.099,25.222 -8.296,37.679c12.748,-14.782 33.511,-25.377 49.028,-8.17c21.734,18.184 24.776,47.597 19.678,73.967c24.674,4.599 48.848,11.429 72.502,20.494c20.716,7.935 41.34,18.3 59.909,31.337c64.956,-3.1 143.877,-13.685 196.557,32.385c2.565,-0.672 5.137,-1.337 7.704,-1.995c-2.657,-61.773 139.191,-48.039 182.33,-54.364c23.89,-35.775 66.29,-38.62 105.715,-38.959c44.1,-1.698 88.226,0.391 132.324,1.502c33.128,0.998 66.098,3.926 99.164,5.938c29.253,3.543 70.257,-0.553 87.745,27.896c-0.197,-1.467 -0.389,-2.938 -0.575,-4.409c-21.231,-28.506 -24.284,-66.083 -24.496,-100.334c-8.197,-55.292 -2.627,-113.476 18.014,-165.539c10.507,-29.373 34.829,-48.405 55.419,-70.309c76.462,-65.929 102.013,63.283 110.309,117.487c75.553,-30.016 98.98,66.308 81.596,122.049c19.505,43.027 -4.88,91.497 -40.786,117.671c-10.836,21.047 -24.027,41.095 -38.137,59.882c-0.876,87.113 -100.347,119.023 -166.378,150.147c-129.513,48.65 -346.047,131.799 -475.706,62.336Zm-352.257,-65.215c15.317,0.062 30.513,-0.117 45.819,-1.278c0.364,-0.037 0.727,-0.07 1.091,-0.107c-0.204,-0.648 -0.403,-1.295 -0.602,-1.945c-8.363,0.351 -16.73,0.498 -25.093,0.458c-12.867,-0.075 -25.691,-0.819 -38.458,-2.127c-3.493,1.568 -6.986,3.144 -10.477,4.729c9.22,0.279 18.433,0.222 27.719,0.271Zm81.356,-122.28c2.027,-0.675 4.053,-1.345 6.08,-2.015c-2.241,-0.012 -4.486,-0.007 -6.728,0.015c0.224,0.665 0.441,1.332 0.648,2Zm-203.054,-46.72c2.169,-1.267 4.333,-2.537 6.511,-3.78c-8.045,-1.558 -16.125,-2.886 -24.251,-4.003c-0.267,0.455 -0.54,0.911 -0.809,1.364c6.168,2.186 12.357,4.322 18.549,6.419Zm950.905,-7.191c3.648,-2.005 7.36,-3.909 11.155,-5.684c-0.988,-4.604 -1.925,-9.227 -2.806,-13.866c-1.056,7.31 -3.837,14.204 -8.349,19.55Zm169.517,-151.74c3.605,-2.632 7.372,-5.065 11.374,-7.223c1.172,-0.633 2.346,-1.202 3.53,-1.718c1.626,-12.997 6.874,-27.6 3.58,-40.269c-0.01,-0.013 -0.02,-0.025 -0.028,-0.038c-6.058,1.12 -12.046,3.398 -17.162,6.822c0.339,14.165 -0.052,28.33 -1.294,42.427Zm-115.599,-72.766c9.192,17.593 16.605,36.101 22.586,55.091c15.788,-38.077 -0.665,-83.242 -8.545,-122.205c-4.048,10.417 -7.749,20.974 -11.11,31.621c-2.731,9.553 -5.186,19.164 -7.402,28.827c1.73,2.047 3.23,4.3 4.47,6.666Zm-1237.798,-7.051c1.596,-0.284 3.24,-0.572 4.848,-0.901c3.187,-0.983 6.292,-2.089 9.359,-3.307c7.37,-40.289 22.899,-83.009 39.018,-119.327c-21.587,25.636 -43.592,61.804 -57.142,89.785c-5.002,8.991 -7.539,19.637 -7.442,29.894c3.8,3.18 8.729,4.519 13.62,3.718l-2.261,0.137Zm100.666,-75.201c23.348,-27.991 44.887,-58.427 59.493,-91.988c-2.042,1.563 -4.036,3.175 -6.02,4.858c-1.974,1.965 -3.879,3.951 -5.736,5.981c-2.453,11.812 -9.093,32.685 -22.982,32.508c-9.324,15.666 -17.975,31.694 -24.755,48.64Z" style="fill:#abcf10;fill-rule:nonzero;"></path><path d="M791.285,402.786c-72.928,-2.226 -147.831,-8.501 -218.822,-20.434c70.112,-21.543 141.594,-38.321 214.318,-47.982c280.27,-24.896 559.134,-48.837 840.234,-53.012c244.684,1.233 490.014,-5.034 734.284,11.426c81.077,7.861 162.272,13.263 243.694,15.928c122.26,6.994 244.667,1.38 367.012,2.94c133.472,6.003 266.861,15.024 400.565,11.62c32.259,-0.587 64.726,-0.752 96.804,-4.355c7.92,-6.053 18.234,-8.107 28.143,-2.303c23.158,13.381 25.252,50.083 5.159,66.978c-13.448,11.49 -34.143,11.294 -50.92,12.143c-32.152,2.047 -64.465,2.425 -96.681,2.935c-123.744,2.635 -247.172,-5.219 -370.667,-11.361c-160.412,-1.314 -321.106,3.398 -481.319,-7.891c-163.263,-14.72 -326.701,-23.392 -490.72,-21.806c-225.654,-2.455 -451.567,-3.536 -676.967,9.663c-182.55,4.44 -362.577,36.041 -544.119,35.511Z" style="fill-rule:nonzero;"></path><path d="M80.898,448.718c-33.64,-75.316 54.827,-67.993 102.689,-69.069c58.43,-1.166 116.782,-0.73 175.215,-1.568c164.834,-0.836 328.568,-22.219 493.134,-29.243c168.186,-7.342 340.183,-20.181 506.387,2.804c-88.066,24.48 -177.5,44.783 -268.046,57.192c-165.111,17.733 -331.78,15.709 -497.117,33.416c-127.334,12.788 -255.453,8.179 -383.006,15.606c-31.843,1.736 -64.081,0.583 -95.701,5.221c-13.264,3.839 -26.214,-2.774 -33.556,-14.359Z" style="fill-rule:nonzero;"></path><path d="M244.186,631.405c-16.358,-54.06 37.813,-58.82 76.899,-66.195c103.618,-21.692 208.598,-6.203 312.959,-0.328c122.616,3.033 245.287,2.622 367.99,5.147c285.543,8.821 565.875,-12.28 849.506,-12.587c164.337,5.767 328.887,11.321 493.33,12.594c205.491,-0.578 410.579,-14.591 615.994,-19.12c152.547,-7.679 305.026,-16.191 457.516,-24.553c139.295,-14.864 280.917,-35.632 420.778,-25.457c20.666,5.431 40.71,14.394 56.729,28.267c-19.78,20.237 -43.869,34.273 -71.352,41.001c-82.145,7.221 -165.564,4.596 -247.836,13.57c-122.9,15.958 -245.989,25.915 -369.922,28.34c-282.132,17.128 -564.948,27.725 -847.546,33.026c-246.305,2.264 -492.518,-22.334 -738.657,-8.157c-325.328,16.087 -651.247,7.358 -976.74,3.593c-119.111,-6.479 -240.182,-24.837 -356.781,8.294c-16.047,10.353 -37.401,0.513 -42.868,-17.436Z" style="fill-rule:nonzero;"></path><path d="M3788,510.965c-64.289,-43.359 -141.019,-60.385 -213.599,-84.8c-53.392,-17.698 -105.981,-38.177 -160.006,-53.923c-33.72,-12.13 -25.752,-78.119 13.122,-73.182c81.038,24.029 159.899,55.395 240.889,79.842c46.662,14.056 92.559,31.275 134.217,56.859c12.273,7.246 25.394,15.863 30.551,29.767c13.517,30.909 -12.765,69.283 -45.174,45.437Z" style="fill-rule:nonzero;"></path><path d="M104.591,2035.583c-5.092,-3.525 -8.747,-9.401 -11.881,-14.623c-5.485,-9.401 -9.009,-20.564 -10.38,-31.4c-2.219,-17.496 -1.045,-36.036 -0.197,-53.595c0.914,-18.736 2.482,-37.341 4.178,-55.947c3.197,-35.54 5.906,-71.076 8.082,-106.674c1.927,-40.366 3.027,-80.793 4.061,-121.157c1.11,-41.193 2.677,-82.385 3.526,-123.577c1.696,-82.19 -0.067,-164.51 -3.003,-246.634c-0.687,-19.309 -1.903,-38.558 -2.864,-57.805c-4.768,-70.884 -9.543,-141.704 -14.762,-212.588c-2.351,-31.988 -5.746,-63.977 -9.989,-95.833c-4.765,-35.906 -10.575,-71.614 -15.34,-102.165c-6.071,-33.228 -11.947,-66.457 -18.41,-99.619c-6.463,-33.554 -13.253,-67.045 -19.52,-100.665c-3.264,-17.233 -6.593,-34.403 -9.335,-51.702c-4.699,-29.965 -9.661,-59.732 -8.617,-90.155c1.24,-36.491 14.297,-78.924 52.095,-91.981c6.854,-2.415 14.297,-2.545 21.411,-2.48c6.92,0.065 14.427,0.979 20.955,3.199c14.974,5.012 26.649,13.657 33.043,26.898c9.238,15.868 5.435,40.243 -8.887,51.897c-5.876,4.699 -13.383,6.984 -20.825,5.614c-7.322,-1.345 -12.857,-5.692 -17.155,-11.242c-0.369,-0.124 -0.739,-0.246 -1.11,-0.366c-1.182,-0.232 -2.378,-0.429 -3.576,-0.587c-2.94,-0.164 -5.812,-0.179 -8.745,-0.094c-0.14,0.023 -0.279,0.045 -0.418,0.069c-0.336,0.117 -0.672,0.236 -1.004,0.354c-0.075,0.045 -0.152,0.089 -0.227,0.132c-0.027,0.022 -0.052,0.045 -0.079,0.069c-0.214,0.244 -0.429,0.49 -0.643,0.734c-0.145,0.217 -0.291,0.435 -0.436,0.652c-0.291,0.565 -0.585,1.128 -0.884,1.695c-0.369,0.943 -0.717,1.89 -1.046,2.844l-1.431,5.936c-0.379,2.615 -0.675,5.231 -0.892,7.865c-0.201,5.572 -0.207,11.105 -0.105,16.729c1.773,23.99 5.965,47.619 9.74,71.352c15.129,79.471 32.039,158.759 44.985,238.556c3.72,23.044 7.442,46.088 11.164,69.134c3.329,20.237 5.418,40.669 8.094,61.037c2.612,19.715 3.852,39.756 5.811,59.537c2.154,21.281 3.199,42.759 4.765,64.106c6.006,81.864 12.013,163.791 15.016,245.85c3.003,82.45 3.72,164.966 2.024,247.481c-1.372,64.171 -3.396,128.408 -5.615,192.579c-2.131,62.088 -8.227,123.854 -13.288,185.746c-0.74,16.032 -1.148,32.065 -1.27,48.157c-0.196,20.171 -4.374,41.192 -17.559,57.122c-2.873,3.459 -6.137,6.528 -10.249,8.421c-0.715,0.336 -1.429,0.48 -2.132,0.48c-2.57,0 -5.022,-1.917 -7.073,-3.352Z" style="fill-rule:nonzero;"></path><path d="M78.802,2086.588c0.984,-49.479 59.214,-49.464 60.19,-0.003c-0.984,49.478 -59.214,49.464 -60.19,0.003Z" style="fill-rule:nonzero;"></path><path d="M302.441,2124.725c-39.37,-29.752 -9.165,-111.708 -9.72,-155.435c11.082,-146.175 17.223,-292.913 19.386,-439.474c5.721,-182.502 1.887,-365.124 -5.575,-547.579c-8.57,-124.937 -27.468,-250.073 -18.515,-375.432c11.371,-58.241 72.553,-28.135 58.612,21.849c-5.319,130.467 16.552,259.8 21.881,389.878c12.541,298.615 5.492,597.92 -11.098,896.246c-2.624,50.576 -9.436,100.817 -13.587,151.25c1.071,24.052 -8.807,71.293 -41.384,58.696Z" style="fill-rule:nonzero;"></path><path d="M263.126,2147.668c-18.605,-2.35 -37.014,-11.424 -52.225,-22.065c-13.828,-9.676 -26.323,-21.33 -37.639,-34.154c-27.09,-6.319 -55.357,0.511 -82.282,-5.732c-43.968,-17.845 -12.678,-99.261 30.762,-72.304c68.967,-2.492 141.395,19.424 196.089,61.532c19.586,19.804 15.303,59.816 -11.946,70.505c-13.451,5.027 -28.795,3.982 -42.759,2.219Z" style="fill-rule:nonzero;"></path><path d="M300.571,668.557c-58.652,-20.716 -103.389,-70.297 -149.948,-110.003c-18.751,-16.176 -38.242,-31.915 -59.388,-44.878c-7.748,-0.944 -15.216,-5.365 -20.19,-12.501c-22.75,-31.282 9.878,-83.669 46.494,-55.307c74.435,-11.942 125.581,86.092 177.817,132.005c11.215,11.58 26.863,18.699 34.855,33.036c12.405,22.429 -0.381,61.828 -29.64,57.648Z" style="fill-rule:nonzero;"></path><path d="M796.862,2212.865c-128.564,-8.095 -257.265,-8.002 -386.009,-7.574c-60.589,-1.771 -123.625,2.256 -182.004,-16.191c-31.417,-14.247 -59.695,-34.851 -88.33,-53.955c-10.746,12.626 -29.012,14.058 -40.537,1.335c-24.862,-26.706 -0.333,-79.613 34.209,-82.449c13.579,0 24.284,7.637 34.86,15.079c37.823,25.778 75.873,56.131 123.676,56.903c82.639,6.177 165.624,3.784 248.427,4.195c160.37,-0.175 320.413,15.551 480.47,-2.341c159.646,-10.208 319.901,-2.783 479.247,-17.385c176.293,-26.48 351.28,-61.61 529.575,-73.158c238.116,-24.308 473.209,-38.904 710.753,-62.999c128.211,-16.567 255.593,-39.103 384.244,-51.705c161.386,-16.007 323.919,-14.412 485.823,-22.257c81.219,-3.351 161.933,-13.804 242.65,-23.046c40.615,-4.536 47.001,66.943 8.879,74.417c-235.987,34.255 -474.912,25.068 -712.135,43.56c-139.672,13.126 -277.967,38.042 -417.1,55.544c-256.594,23.945 -521.45,43.102 -775.868,68.284c-166.313,12.395 -328.6,54.429 -494.375,69.978c-78.627,6.275 -157.694,5.619 -236.513,6.991c-143.6,-0.475 -286.467,17.578 -429.943,16.776Z" style="fill-rule:nonzero;"></path><path d="M3853.322,1961.535c-20.967,-12.989 -19.331,-40.704 -11.164,-60.777c8.732,-26.738 16.142,-54.057 21.251,-81.688c26.778,-174.159 23.716,-362.34 -5.644,-534.373c-35.169,-138.427 -29.201,-280.519 -35.635,-422.04c-6.989,-120.437 -22.82,-241.256 -21.164,-361.788c8.177,-82.395 106.343,-36.083 58.883,24.115c3.794,90.313 11.065,180.513 17.686,270.693c12.19,119.917 4.049,241.126 17.472,360.727c34.95,159.292 53.579,321.507 44.024,484.469c0.872,81.028 -7.815,161.712 -27.282,240.434c-10.747,27.993 -13.936,98.32 -58.429,80.228Z" style="fill-rule:nonzero;"></path><path d="M1596.127,355.737c-25.598,-69.468 -8.685,-148.409 -25.747,-220.582c-6.64,-24.338 -16.378,-60.352 14.195,-72.577c-0.777,-49.681 50.871,-73.456 65.371,-17.436c55.952,17.138 205.733,38.962 152.149,126.266c-11.047,33.451 5.632,130.29 -44.068,127.467c-45.794,-12.106 -15.701,-111.148 -14.001,-147.126c-32.597,-15.183 -67.802,-22.633 -102.373,-31.885c-5.632,70.663 3.484,140.772 7.226,211.193c2.539,29.099 -33.489,53.171 -52.753,24.679Z" style="fill-rule:nonzero;"></path><path d="M2492.587,308.552c-21.796,-4.44 -27.653,-30.172 -24.735,-49.183c0.424,-47.968 -2.064,-96.139 -8.194,-143.702c-118.067,-8.16 -232.038,-15.143 -349.032,-21.629c-64.079,-5.017 -127.182,-22.018 -191.862,-18.413c-93.689,6.536 -191.675,-4.795 -281.631,26.253c-10.641,10.891 -28.029,10.951 -38.902,-0.792c-67.145,-111.544 215.7,-93.759 273.532,-98.958c83.779,-7.788 166.002,7.567 248.917,17.621c69.241,6.688 146.833,4.395 213.992,12.078c46.682,2.757 93.602,11.007 140.294,7.83c53.392,6.94 43.358,82.091 49.808,121.688c-2.306,36.325 25.078,150.685 -32.187,147.208Z" style="fill-rule:nonzero;"></path><path d="M1800.809,189.292c-23.893,-0.013 -38.992,-22.003 -35.71,-44.454c2.067,-19.032 17.813,-35.826 37.941,-30.678c27.556,0.249 54.573,-6.915 81.72,-11.225c146.14,-37.104 294.969,-2.747 442.673,-15.036c60.777,-4.872 122.146,-15.86 182.849,-15.131c31.736,7.562 45.418,45.742 14.952,65.351c-25.454,15.674 -66.281,9.153 -92.897,14.357c-53.99,5.573 -107.881,11.974 -162.158,14.362c-89.984,2.585 -179.599,-13.634 -269.633,-5.527c-67.112,4.928 -132.545,26.201 -199.737,27.981Z" style="fill-rule:nonzero;"></path><path d="M1658.321,3617.737c-8.132,-21.044 0.806,-50.591 1.263,-70.62c4.89,-86.14 13.836,-171.819 19.79,-257.804c3.652,-256.407 -15.94,-513.085 5.911,-769.28c-0.037,0.973 -0.1,1.97 -0.134,2.938c6.351,-106.292 11.413,-205.105 13.508,-310.218c5.451,-34.144 -16.246,-107.714 31.211,-114.374c47.696,5.319 24.5,81.384 28.917,114.375c-1.95,185.819 -21.438,370.778 -24.283,556.523c-2.689,164.984 7.913,329.791 6.137,494.766c-4.395,103.307 -17.549,206.417 -22.812,309.59c80.46,-18.741 157.691,-51.137 240.131,-62.371c64.457,-8.338 121.592,-11.936 184.353,-22.778c99.657,-13.756 209.191,-35.839 297.111,27.326c10.249,-227.786 23.688,-453.544 33.541,-680.991c5.104,-192.359 18.52,-384.276 42.236,-575.217c2.153,-41.088 2.64,-82.181 2.806,-123.356c0.048,-18.778 -2.692,-38.906 11.03,-54.053c27.647,-26.306 53.236,11.68 49.025,40.147c4.226,110.478 -12.13,219.332 -23.43,328.822c-13.759,163.066 -19.576,326.619 -26.243,490.066c-8.379,155.375 -14.857,310.822 -23.895,466.11c-2.221,42.059 -4.151,84.26 -5.744,126.385c-2.651,26.819 2.32,58.286 -16.973,79.77c-23.749,22.991 -42.305,-1.919 -56.817,-21.019c-50.382,-41.63 -115.879,-50.828 -178.869,-41.406c-104.926,14.453 -212.436,25.101 -316.203,41.342c-46.082,9.424 -91.1,22.91 -135.852,37.276c-42.203,14.12 -110.224,40.344 -135.718,-11.947Z" style="fill-rule:nonzero;"></path><path d="M1665.245,3600.055c-30.969,-11.266 -55.857,-36.855 -87.185,-48.991c-28.277,-14.658 -65.959,-20.95 -82.612,-50.828c-18.298,-54.484 -10.886,-114.588 -11.551,-171.365c0.912,-79.578 3.134,-159.22 8.291,-238.667c22.785,-281.022 34.933,-563.109 29.179,-845.066c-0.717,-41.193 -2.022,-82.385 -2.219,-123.644c0,-16.973 10.838,-37.602 30.095,-37.602c19.324,0 29.965,20.629 30.092,37.602c6.952,246.779 2.544,493.497 -9.922,740.029c-12.955,198.021 -34.824,397.36 -22.384,595.811c49.449,26.893 141.332,49.2 153.73,111.314c5.366,23.923 -13.413,36.429 -35.513,31.407Z" style="fill-rule:nonzero;"></path><path d="M1383.198,3592.685c-36.34,-53.582 -35.685,-124.257 -54.765,-185.009c-26.649,-115.787 -63.725,-229.187 -97.209,-342.725c83.674,144.784 147.029,303.298 189.74,465.914c37.518,26.651 2.821,97.79 -37.766,61.819Z" style="fill-rule:nonzero;"></path><path d="M1307.093,3678.585c-25.772,-151.153 -80.843,-295.273 -132.195,-439.213c-63.531,-174.894 -130.434,-348.676 -192.972,-523.946c-0.065,-0.196 0.196,-0.458 0.264,-0.197c116.611,232.156 234.732,465.003 321.706,710.197c22.763,63.155 40.132,128.492 53.985,194.147c4.297,27.643 20.43,69.096 -13.318,84.147c-17.262,6.807 -33.35,-8.384 -37.47,-25.133Z" style="fill-rule:nonzero;"></path><path d="M1222.266,3697.444c-32.849,-32.293 -47.978,-78.929 -68.412,-119.467c-56.358,-121.704 -112.722,-243.429 -165.42,-366.815c57.68,83.837 114.093,172.807 165.815,261.777c34.819,61.95 69.744,126.288 103.207,186.379c4.686,10.099 4.445,22.526 8.292,32.446c-4.826,17.897 -31.637,15.584 -43.481,5.68Z" style="fill-rule:nonzero;"></path><path d="M1307.375,3873.465c-2.605,-102.03 -30.098,-203.769 -37.6,-304.797c16.179,47.714 133.973,322.134 60.772,333.782c-14.493,0 -23.698,-15.863 -23.171,-28.985Z" style="fill-rule:nonzero;"></path><path d="M1534.336,3899.703c-24.192,-20.892 -28.156,-55.701 -36.491,-84.867c-22.962,-101.296 -32.077,-204.958 -39.888,-308.323c0,-0.196 0.262,-0.326 0.328,-0.065c31.552,103.228 56.792,208.116 86.787,311.813c14.752,30.413 10.363,62.431 19.752,87.708c-8.159,10.012 -23.161,-0.65 -30.488,-6.265Z" style="fill-rule:nonzero;"></path><path d="M2563.45,3743.439c-56.677,-35.724 -26.305,-208.323 -18.206,-268.632c28.235,-174.136 100.305,-338.928 209.811,-477.208c0.197,-0.261 0.393,0.065 0.266,0.197c-98.345,183.326 -150.684,386.985 -162.997,592.305c-2.945,49.962 4.155,101.42 -0.406,150.007c-4.29,11.993 -20.136,8.531 -28.467,3.331Z" style="fill-rule:nonzero;"></path><path d="M2656.103,3729.565c-79.569,-93.512 72.007,-412.325 125.609,-509.455c-31.007,112.387 -62.386,231.394 -82.783,345.076c-8.516,56.248 -15.363,113.969 -42.731,164.451c-0.032,-0 -0.065,-0.022 -0.095,-0.072Z" style="fill-rule:nonzero;"></path><path d="M2754.931,3656.537c-30.608,-31.332 -7.263,-78.003 4.245,-113.002c33.272,-92.346 92.421,-172.246 158.177,-244.022c-17.086,37.951 -36.202,77.826 -53.01,114.046c-21.156,48.254 -39.367,97.384 -55.006,147.699c-9.768,26.049 -11.21,55.765 -25.29,79.741c-5.226,6.971 -18.228,24.276 -29.116,15.537Z" style="fill-rule:nonzero;"></path><path d="M2825.374,3771.18c-62.09,-36.601 45.418,-162.327 84.282,-187.49c-16.463,54.077 -38.262,108.84 -50.529,164.836c-3.299,15.129 -18.345,28.693 -33.753,22.655Z" style="fill-rule:nonzero;"></path><path d="M2352.842,3907.128c-21.111,-49.914 -4.382,-110.659 22.717,-155.437c11.495,52.758 -4.572,106.328 -22.717,155.437Z" style="fill-rule:nonzero;"></path><path d="M1941.949,3864.641c-26.082,-23.205 -31.001,-65.763 -22.331,-97.855c28.13,27.139 27.47,61.443 32.246,95.857c0.689,0.668 2.532,1.033 2.555,1.932c-4.858,3.108 -7.472,2.702 -12.47,0.067Z" style="fill-rule:nonzero;"></path><path d="M2126.551,3910.603c-21.263,-40.781 -22.102,-90.028 -11.685,-134.022c12.587,24.416 22.402,52.927 25.718,80.948c3.947,22.274 -4.813,47.028 3.749,68.008c0.401,0.401 2.041,0.685 1.608,1.257c-8.911,3.717 -16.217,-10.582 -19.389,-16.191Z" style="fill-rule:nonzero;"></path><path d="M2480.05,3997.331c-34.517,-13.065 -31.4,-58.885 -31.333,-89.371c3.287,-99.542 56.746,-190.069 106.733,-271.963c-21.985,81.899 -53.876,162.272 -59.127,247.593c-3.61,36.7 10.134,74.88 -3.085,109.888c-1.299,4.681 -9.098,4.995 -13.187,3.852Z" style="fill-rule:nonzero;"></path><path d="M1788.447,3936.834c-9.989,-11.62 -17.757,-24.872 -24.089,-38.779c10.059,3.01 21.059,9.852 30.616,15.734c21.273,13.096 33.125,36.168 51.05,52.683c-21.518,3.306 -43.804,-13.834 -57.578,-29.639Z" style="fill-rule:nonzero;"></path><path d="M2419.292,3937.394c-26.966,-43.112 67.267,-61.626 96.358,-62.735c-3.839,5.351 -10.619,10.565 -14.951,15.079c-13.873,13.223 -28.658,25.598 -44.546,36.354c-11.165,8.206 -23.231,17.177 -36.862,11.302Z" style="fill-rule:nonzero;"></path><path d="M1766.432,1069.091c-7.328,-28.292 11.271,-54.002 21.087,-79.317c22.707,-51.351 45.163,-102.959 65.483,-155.375c-43.946,66.997 -90.718,154.304 -180.665,157.424c-46.413,10.331 -83.852,41.15 -127.793,57.548c-76.36,30.852 -101.678,-66.402 -158.057,-91.005c-0.002,0.002 0.924,-0.448 0.924,-0.448c-10.41,-1.033 -19.326,4.121 -28.22,8.779c-135.449,90.845 -159.25,68.317 -294.405,1.661c-27.192,-9.404 -57.314,-16.525 -85.208,-5.888c-73.244,36.908 -130.487,81.394 -193.212,-0.832c-11.02,-11.23 -22.864,-26.445 -39.442,-28.006c-0.45,0.015 -0.896,0.03 0.924,-1.111c-43.817,22.633 -66.474,73.093 -100.661,107.39c-7.051,7.9 -16.386,16.777 -27.483,18.017c-23.699,2.684 -36.965,-24.852 -32.314,-45.37c2.129,-10.895 9.369,-24.059 20.658,-27.959c11.195,-12.765 21.57,-26.198 32.286,-39.342c46.772,-60.827 103.26,-128.245 174.625,-53.534c15.883,13.555 26.672,37.373 48.373,41.925c-0.866,-0.152 -1.72,-0.299 -2.58,-0.431c-0.814,-0.292 -1.629,-0.58 -2.445,-0.889c39.845,5.438 71.703,-32.924 108.889,-42.825c53.707,-18.507 110.403,0.824 158.634,25.655c34.28,16.752 69.149,44.128 109.537,35.752c58.716,-11.048 101.434,-76.817 164.122,-66.435c43.191,11.837 69.888,51.206 98.161,83.376c5.6,5.814 12.118,11.75 20.718,11.414c29.702,-4.81 54.635,-24.383 81.209,-37.468c33.909,-20.893 74.039,-23.056 110.946,-34.111c87.942,-72.122 127.78,-186.64 195.42,-276.044c10.93,-18.901 37.966,-34.824 54.386,-13.057c36.741,52.193 -67.784,277.157 -91.976,340.554c32.847,-37.627 82.088,-26.211 125.913,-32.227c64.909,-8.988 118.461,-37.291 162.397,30.162c2.647,2.119 5.458,4.074 8.871,4.653l-0.752,0.5c4.374,0.261 8.747,-0.196 8.682,-0.521c80.137,-30.374 137.446,-134.57 215.361,-32.112c45.686,-15.983 80.427,-64.365 133.437,-60.915c54.386,3.491 88.976,59.448 96.811,108.89c-7.298,-3.899 -15.235,-10.258 -23.208,-14.352c-120.928,-86.884 -175.459,119.454 -262.768,6.872c-44.26,-48.769 -144.612,149.933 -232.604,25.975c-15.678,-17.847 -40.249,-2.965 -59.941,-1.524c-35.481,7.472 -71.369,11.205 -107.545,10.361c-47.805,1.247 -130.676,148.023 -166.572,64.191Z" style="fill-rule:nonzero;"></path><path d="M2765.652,1033.075c-19.702,-26.494 1.394,-58.744 23.957,-75.401c30.558,-27.199 61.201,-54.354 95.898,-76.312c44.426,-30.04 110.65,-41.484 150.737,1.497c22.854,25.815 37.717,58.995 64.039,81.927c-39.985,11.702 -73.977,-14.89 -108.942,-30.132c-68.472,-22.048 -122.808,48.729 -171.116,86.667c-13.029,15.758 -38.013,32.67 -54.573,11.754Z" style="fill-rule:nonzero;"></path><path d="M3345.436,1008.063c-53.435,-1.299 -61.442,-64.597 -99.49,-88.388c0.931,0.562 1.83,1.086 2.744,1.604c0.085,0.032 0.172,0.062 1.106,0.617c-22.29,-11.17 -45.149,14.991 -66.457,1.11c-15.123,-10.171 -16.986,-31.649 -10.121,-47.265c25.083,-45.819 100.844,-39.074 129.976,0.065c23.507,23.621 30.513,73.994 73.038,51.994c56.112,-26.875 121.018,-41.623 181.559,-24.052c-26.403,12.897 -51.978,27.246 -76.028,41.048c-42.93,24.767 -83.426,65.61 -136.328,63.267Z" style="fill-rule:nonzero;"></path><path d="M1346.863,1621.693c-4.455,-46.596 9.392,-93.808 27.787,-136.296c-96.136,86.561 -126.727,-13.906 -188.906,13.961c-39.099,21.677 -76.376,69.171 -125.206,58.363c-38.819,-17.501 -53.752,-67.264 -96.696,-80.31c-38.767,-11.924 -80.106,19.906 -110.177,35.458c-39.343,24.876 -80.259,48.341 -115.808,78.663c-37.691,29.742 -64.724,-35.214 -35.125,-59.54c63.105,-50.171 132.037,-95.566 206.616,-126.639c69.3,-24.75 128.818,28.153 168.338,79.414c38.974,-14.563 67.003,-50.141 107.02,-63.293c20.302,-6.984 44.653,-3.199 63.91,4.833c19.409,6.488 37.769,22.817 59.117,18.565c8.531,-1.666 16.49,-6.678 23.248,-11.954c50.118,-43.042 74.751,-107.201 101.534,-165.9c12.857,-30.321 44.883,-115.298 84.406,-66.325c9.218,15.086 11.478,33.274 7.901,50.527c-7.758,42.164 -22.008,82.704 -36.885,122.793c-35.03,88.657 -63.857,185.873 -140.896,247.862c-0.079,0 -0.177,-0.09 -0.179,-0.184Z" style="fill-rule:nonzero;"></path><path d="M2018.047,1595.425c-20.079,-13.717 -20.435,-40.448 -11.007,-60.673c14.73,-47.293 33.432,-93.846 41.382,-142.934c-53.425,41.777 -104.545,86.74 -159.763,126.184c-14.874,10.074 -33.523,30.25 -52.225,16.908c-20.472,-13.306 -18.796,-46.085 -2.351,-62.147c15.668,-12.965 32.807,-24.313 49.026,-36.623c42.368,-31.758 82.629,-66.297 123.953,-99.411c13.298,-10.465 28.018,-22.133 45.189,-24.821c57.559,-4.755 63.282,69.554 52.182,111.008c31.28,-41.867 58.502,-86.58 88.176,-129.613c14.401,-19.862 27.942,-44.432 51.832,-53.99c106.554,-17.143 13.896,194.005 2.848,241.908c0.035,0.01 0.07,0.017 0.104,0.023c3.326,0.418 6.658,0.486 10.041,0.201c-1.511,0.065 -2.928,0.065 -4.44,0.132c45.288,-8.192 81.827,-40.075 120.575,-62.867c17.364,-11.63 36.89,-24.371 58.622,-18.28c20.566,5.819 34.728,24.326 47.922,39.972c22.428,23.29 53.472,37.717 77.55,58.599c-49.264,21.248 -104.163,18.209 -139.98,-24.734c-0.027,0.012 -0.052,0.022 -0.077,0.03c-43.593,25.345 -83.834,57.107 -131.318,75.232c-58.266,25.325 -110.421,-16.339 -98.382,-78.856c6.665,-34.44 20.487,-66.841 30.459,-100.346c-34.565,53.278 -71.011,105.235 -110.229,155.184c-20.228,19.581 -58.449,92.377 -90.089,69.913Z" style="fill-rule:nonzero;"></path><path d="M2817.123,1565.188c-20.494,-2.52 -30.372,-26.019 -26.046,-44.521c2.285,-14.234 12.278,-24.391 23.566,-32.381c22.444,-18.174 44.009,-37.495 67.306,-54.64c42.858,-31.905 108.875,-87.197 158.697,-38.189c11.376,12.659 17.071,30.269 31.465,40.212c-0.419,-0.231 -0.839,-0.461 -0.979,-0.456c-0.102,-0.087 -0.204,-0.169 -0.308,-0.252c-0.871,-0.481 -1.733,-0.964 -2.565,-1.444c74.865,39.95 194.08,-206.684 249.079,22.727c41.342,-23.18 74.903,-59.839 121.197,-74.173c95.606,-26.956 191.189,27.172 265.629,82.968c-82.363,10.791 -164.429,-18.338 -243.337,-12.626c-62.23,11.222 -100.745,90.317 -167.61,79.482c-35.097,-14.031 -31.26,-58.597 -44.245,-87.85c0.002,0 0.247,-0.673 0.247,-0.675c-19.907,-52.623 -155.525,176.298 -249.961,8.879c0.224,0.084 0.446,0.165 0.521,0.132c0.094,0.053 0.191,0.109 0.206,0.064c-3.199,-1.083 -5.329,-1.502 -8.301,-1.761c0.784,0.102 1.551,0.222 1.444,0.383c0.304,-0.008 0.607,-0.015 0.911,-0.023c0.69,0.115 1.38,0.237 2.082,0.356c-47.297,5.38 -82.342,48.69 -120.057,74.679c-18.809,11.834 -35.433,39.414 -58.942,39.109Z" style="fill-rule:nonzero;"></path><path d="M3365.078,1865.794c-27.936,-3.725 -39.255,-43.224 -18.801,-62.214c8.124,-10.256 20.532,-12.999 32.966,-13.057c23.781,-2.397 47.245,-7.497 70.896,-10.771c32.597,-5.266 64.924,-7.614 96.681,-14.426c21.67,-5.062 43.296,-11.67 65.936,-9.99c19.371,0.807 40.326,5.104 56.858,14.493c-29.291,34.151 -67.423,61.413 -112.542,68.94c-63.262,10.768 -127.899,22.051 -191.993,27.025Z" style="fill-rule:nonzero;"></path></g></svg>