<svg width="100%" height="100%" viewBox="0 0 9442 6200" version="1.1" xmlns="http://www.w3.org/2000/svg" xmlns:xlink="http://www.w3.org/1999/xlink" xml:space="preserve" style="fill-rule:evenodd;clip-rule:evenodd;stroke-linejoin:round;stroke-miterlimit:2;"><g><path d="M3457.401,5774.116c-178.301,-14.585 -335.204,-135.883 -513.507,-143.108c-128.929,-0.288 -357.031,72.617 -429.985,-69.118c-42.567,-119.79 64.695,-230.761 141.536,-310.878c74.75,-66.55 151.201,-156.566 257.377,-164.195c125.959,20.225 235.129,102.224 364.513,112.454c31.683,3.107 49.898,4.716 75.281,-10.421c43.677,-13.222 74.271,42.913 60.421,80.049c-18.94,51.392 -85.616,52.177 -131.643,47.558c3.826,3.915 7.257,8.435 10.191,13.677c10.942,19.453 13.426,45.467 6.681,67.778c129.56,4.426 273.629,-19.49 382.411,68.694c203.493,195.589 -3.795,347.889 -223.276,307.51Zm162.342,-213.76c16.87,7.566 28.32,22.389 33.227,40.076c2.146,7.718 3.185,16.561 2.664,25.302c3.216,-2.418 6.344,-4.897 9.427,-7.522c0.691,-0.788 1.39,-1.568 2.083,-2.353c-7.087,-37.749 -43.237,-62.339 -76.197,-76.93c0.411,4.114 0.495,8.281 0.249,12.471c9.872,1.599 19.212,4.808 28.547,8.956Zm-948.734,-30.913c-10.892,-2.054 -20.047,-6.247 -30.021,-12.023c-11.466,-6.708 -25.009,-18.895 -31.832,-32.379c-2.416,4.891 -4.729,9.83 -6.922,14.852c-1.052,2.787 -2.099,5.653 -3.059,8.43c0.243,-1.015 0.505,-2.028 0.777,-3.044c0.408,-0.966 0.809,-1.931 1.269,-4.624c-1.227,3.829 -2.219,7.715 -2.991,11.651c18.581,13.258 49.565,15.548 72.779,17.137Zm148.139,-275.558c44.661,-8.521 85.585,-32.593 130.97,-41.997c-47.867,-22.012 -93.407,15.341 -130.97,41.997Z" style="fill:#abcf10;fill-rule:nonzero;"></path><path d="M4485.153,5782.321c-30.157,-2.965 -48.458,-31.384 -49.377,-60.01c-0.722,-20.597 9.058,-44.773 27.791,-53.719c-3.038,-6.281 -5.124,-13.093 -6.26,-19.971c-1.442,-1.832 -2.824,-3.722 -4.132,-5.661c-20.17,-6.579 -40.343,-13.18 -60.549,-19.715c-36.634,85.532 -155.158,-0.992 -206.037,-32.211c-45.891,-10.913 -91.031,-24.685 -136.529,-37.097c31.356,-13.468 68.921,-21.426 103.386,-29.123c-5.004,-49.175 44.247,-73.164 86.966,-59.102c77.048,12.156 150.915,37.165 224.634,61.944c55.901,-57.236 131.661,-90.112 198.458,-132.92c49.291,-69.518 206.817,-242.681 288.216,-141.219c34.475,-8.587 69.403,3.614 98.073,22.384c120.217,-43.918 253.069,-47.524 208.937,121.826c-13.897,69.916 -22.13,145.186 -76.671,197.615c-77.181,79.971 -193.524,108.348 -300.923,118.165c-109.683,85.242 -264.32,73.491 -395.984,68.814Z" style="fill:#abcf10;fill-rule:nonzero;"></path><path d="M4443.489,882.293c-346.604,-13.434 -691.994,-75.022 -1033.858,-126.356c-255.647,-35.883 -512.29,-61.251 -769.594,-82.703c-181.944,-12.625 -363.011,-40.073 -545.873,-32.659c-39.921,8.746 -78.686,24.2 -120.769,20.183c-71.934,6.818 -96.909,-71.334 -58.788,-123.601c49.063,-61.075 125.919,-95.917 196.343,-126.571c14.245,-88.838 100.143,-40.45 158.209,-35.242c174.616,19.791 351.582,1.133 525.758,29.024c165.786,22.115 333.529,20.018 499.294,42.839c207.311,18.419 416.224,17.647 621.081,59.432c213.715,32.745 431.5,20.33 644.514,60.769c241.347,32.266 485.75,7.014 728.408,6.1c370.998,-33.85 744.642,-54.491 1116.467,-20.505c111.57,15.166 224.707,29.906 337.052,29.238c65.273,25.988 23.973,109.549 -7.969,148.241c-35.203,46.904 -67.377,97.45 -107.139,140.565c-16.035,12.808 -40.327,19.05 -56.584,2.429c-146.191,-27.532 -296.484,-21.821 -444.654,-25.323c-240.873,-3.795 -481.325,8.911 -721.748,21.879c-319.81,10.429 -640.225,19.155 -960.15,12.261Zm151.507,-113.781c257.999,-1.952 516.221,-4.101 773.996,-13.062c406.648,-17.825 818.452,-49.924 1223.517,1.738c-0.427,0.571 -0.843,1.138 -1.256,1.714c15.614,-20.767 31.479,-41.465 46.93,-62.494c-313.767,-36.671 -629.395,-56.257 -945.505,-37.566c-131.457,4.279 -261.781,22.45 -393.008,29.937c-205.118,5.964 -411.129,14.342 -616.244,8.592c-200.174,-18.019 -395.591,-53.601 -596.517,-53.787c-159.921,-9.251 -316.104,-47.705 -475.782,-59.298c-224.529,-6.218 -447.022,-37.958 -671.143,-47.43c-124.517,-8.513 -247.651,-30.775 -372.631,-33.02c-130.638,-3.905 -262.747,3.057 -391.016,-26.2c-7.786,8.964 -16.242,17.372 -25.268,25.177c-9.416,8.15 -19.55,14.904 -30.141,20.989c100.178,-0.236 200.737,-1.097 300.135,12.751c251.878,23.826 504.088,40.782 755.38,70.944c472.623,53.486 940.922,161.973 1418.554,161.015Z" style="fill-rule:nonzero;"></path><path d="M1875.241,886.721c-27.76,-59.39 -14.609,-130.219 22.999,-182.174c19.092,59.28 6.674,128.544 -22.999,182.174Z" style="fill-rule:nonzero;"></path><path d="M1660.56,2902.218c-14.983,-28.029 -8.322,-61.031 -6.459,-91.52c5.703,-120.397 2.677,-240.975 7.273,-361.464c12.79,-197.353 52.905,-393.414 85.281,-583.879c43.863,-255.131 57.574,-514.256 108.756,-768.225c19.704,-113.242 31.921,-235.246 23.206,-344.618c-5.234,-52.261 -10.482,-104.234 -19.128,-156.013c-11.617,-33.441 3.332,-73.514 37.022,-86.278c73.619,-19.042 61.994,125.587 72.373,170.525c33.766,245.798 -40.665,485.821 -66.76,728.392c-29.777,347.965 -113.213,685.239 -145.289,1031.294c-5.216,134.401 -0.722,269.329 -9.893,403.615c4.344,45.668 -48.105,116.215 -86.383,58.17Z" style="fill-rule:nonzero;"></path><path d="M6322.4,3192.971c-464.711,-33.881 -926.086,-100.9 -1389.007,-151.091c-359.064,-22.083 -718.743,-35.634 -1078.328,-46.519c-389.36,-13.784 -776.877,-59.16 -1165.839,-78.715c-336.594,-6.524 -673.622,14.423 -1009.729,-13.491c-63.619,-7.54 -47.838,-118.764 13.083,-116.65c359.684,30.979 720.921,1.371 1081.087,16.967c294.076,17.744 587.451,48.006 881.739,64.412c572.065,34.007 1148.582,19.859 1716.148,108.673c324.333,39.113 649.084,74.326 974.667,100.696c29.442,2.452 62.258,23.716 69.62,54.08c3.797,44.143 -56.472,67.398 -93.441,61.638Z" style="fill-rule:nonzero;"></path><path d="M6334.556,3093.023c-20.152,-227.364 -39.416,-458.7 -26.579,-688.013c18.615,-325.641 70.56,-649.387 137.097,-968.431c28.647,-139.861 48.186,-266.989 66.857,-406.269c12.162,-50.903 -2.735,-134.331 61.238,-151.093c48.131,-3.499 63.931,64.381 41.178,98.717c-61.866,490.134 -197.597,970.511 -213.024,1466.536c-10.254,190.185 11.858,380.202 22.081,568.71c1.123,24.944 2.044,50.094 -7.158,73.805c-16.517,46.935 -61.594,64.454 -81.688,6.038Z" style="fill-rule:nonzero;"></path><path d="M6331.201,3167.504c49.631,-39.989 108.728,-71.198 161.664,-107.819c56.001,-279.085 33.53,-561.644 57.21,-843.129c21.502,-222.962 75.134,-456.143 113.386,-673.187c42.29,-283.775 102.049,-567.213 115.171,-854.212c-14.224,11.22 -28.495,22.264 -41.963,34.381c-9.903,23.017 -36.524,41.759 -61.463,30.814c-28.419,-12.473 -31.486,-48.356 -23.308,-74.221c14.949,-44.119 58.77,-67.54 92.724,-95.885c42.923,-38.492 101.266,-57.129 121.968,14.101c23.266,145.357 -10.769,294.791 -29.66,439.286c-41.842,316.295 -99.979,629.835 -159.167,943.283c-60.133,304.285 -33.214,615.302 -66.341,922.427c-9.474,73.261 -12.408,151.114 -41.918,219.389c-50.926,74.739 -161.253,70.434 -238.303,44.773Z" style="fill-rule:nonzero;"></path><path d="M3390.984,2931.579c8.629,-73.483 100.866,-75.613 94.666,4.289c-8.629,73.483 -100.866,75.613 -94.666,-4.289Z" style="fill-rule:nonzero;"></path><path d="M4505.148,5579.15c-82.42,-28.27 -170.243,-35.428 -256.534,-43.193c-104.404,-7.273 -205.851,-34.368 -309.208,-49.228c-190.698,-19.942 -456.546,-89.235 -619.121,41.149c-7.877,16.134 -22.476,30.382 -40.824,33.025c-157.278,22.703 49.885,-1001.37 52.858,-1133.23c14.266,-163.7 30.785,-327.491 35.99,-491.83c-2.442,-315.712 -12.303,-632.052 28.309,-945.329c6.344,-31.858 8.995,-65.838 26.687,-93.842c25.553,-38.55 80.238,-28.029 86.281,19.011c14.494,39.212 24.907,97.644 -23.583,117.414c-46.006,364.942 -6.344,719.662 -32.444,1083.078c-14.81,252.294 -50.445,501.906 -86.173,751.907c-25.258,175.207 -55.642,351.171 -48.155,528.862c203.566,-105.671 441.317,-50.683 657.448,-23.329c64.237,9.725 127.872,22.866 191.703,34.745c103.894,14.598 209.266,16.755 311.676,41.471c3.133,-200.243 8.273,-401.388 39.976,-599.534c19.722,-124.752 42.635,-246.659 58.882,-370.893c66.542,-474.829 92.245,-958.467 193.425,-1427.039c7.359,-34.452 11.96,-77.898 44.266,-98.958c12.983,-8.587 28.623,-11.756 40.997,-0.102c38.885,42.525 6.265,102.585 -0.105,151.504c-13.172,63.716 -25.122,127.529 -37.275,191.446c-29.333,207.458 -59.144,415.3 -79.468,623.946c-23.991,221.554 -49.257,443.133 -81.79,663.58c-19.432,137.634 -49.715,271.983 -62.156,410.045c-11.874,115.59 -17.474,231.755 -19.628,347.892c-0.44,56.44 -4.695,113.546 -0.817,169.908c7.257,38.15 -30.761,88.987 -71.217,67.524Z" style="fill-rule:nonzero;"></path><path d="M4482.858,5674.381c-70.361,-24.342 -33.036,-115.273 3.575,-154.477c91.34,-108.175 205.529,-194.639 306.913,-293.139c-29.906,-457.02 86.04,-907.253 216.094,-1341.732c70.91,-210.381 89.222,-433.529 162.043,-643.028c21.528,-65.127 47.474,-128.926 62.36,-195.977c5.417,-23.719 7.362,-47.945 27.906,-64.711c49.662,-38.799 83.242,26.333 66.966,71.559c-22.07,106.061 -66.242,205.788 -97.021,309.499c-34.847,117.306 -46.299,240.067 -78.607,358.07c-135.464,481.047 -296.884,969.624 -265.173,1475.958c23.758,26.786 14.944,70.85 -11.039,92.857c-109.667,107.061 -235.094,199.774 -333.058,318.031c3.031,32.753 -24.713,75.498 -60.96,67.089Z" style="fill-rule:nonzero;"></path><path d="M4782.454,5666.37c-58.788,-14.054 -39.513,-156.5 18.663,-160.326c145.079,-268.35 329.821,-516.543 521.631,-750.957c-115.15,206.885 -234.812,411.192 -346.973,619.722c-26.802,49.521 -51.423,100.549 -78.301,150.08c-28.945,41.965 -53.483,148.269 -115.019,141.481Z" style="fill-rule:nonzero;"></path><path d="M4907.23,5796.859c-39.366,-128.523 54.509,-246.089 109.392,-355.35c115.642,-197.806 267.554,-370.231 433.353,-527.511c0.204,-0.207 0.51,0.204 0.309,0.513c-131.222,181.48 -255.492,367.918 -358.931,566.765c-59.932,105.482 -88.482,235.34 -184.124,315.584Z" style="fill-rule:nonzero;"></path><path d="M3080.632,5539.61c-15.252,-146.882 -47.527,-290.818 -84.229,-433.869c-47.822,-193.079 -80.921,-389.247 -107.547,-586.292c39.134,118.746 76.809,241.19 115.307,361.244c65.004,214.833 169.601,421.61 163.781,648.076c-8.137,47.937 -72.441,65.579 -87.312,10.84Z" style="fill-rule:nonzero;"></path><path d="M3286.268,5605.64c-46.796,-24.64 -19.934,-83.473 -7.464,-121.347c58.16,-195.419 194.283,-351.694 320.289,-507.064c89.861,-110.512 181.766,-219.389 275.513,-326.628c0.204,-0.306 0.51,0.102 0.296,0.403c-148.306,253.482 -334.194,491.06 -466.418,750.756c-16.263,38.793 -29.754,78.073 -42.478,118.212c-10.578,36.943 -28.958,103.281 -79.738,85.668Z" style="fill-rule:nonzero;"></path><path d="M3994.98,5651.047c-48.505,-45.268 -12.981,-119.23 -2.348,-174.1c41.507,-157.916 87.257,-314.937 137.092,-470.364c-15.451,157.78 -39.348,319.412 -71.771,476.088c-12.075,59.055 -19.262,123.289 -62.816,168.416c-0.042,0.003 -0.094,-0.01 -0.157,-0.039Z" style="fill-rule:nonzero;"></path><path d="M2799.288,5434.267c-71.125,-27.576 -78.215,-113.792 -104.786,-176.042c-49.764,-136.6 -118.725,-263.893 -175.932,-396.86c98.395,115.658 350.928,416.421 280.878,572.978c-0.058,0 -0.107,-0.024 -0.16,-0.076Z" style="fill-rule:nonzero;"></path><path d="M2787.215,5583.182c-63.695,-137.343 -90.675,-289.203 -133.572,-433.879c-41.018,-145.807 -83.093,-291.121 -123.389,-437.138c73.53,142.193 143.833,286.774 202.001,436.627c47.919,118.573 82.496,242.456 134.153,359.323c9.306,15.514 15.03,32.829 14.797,51.028c3.065,60.146 -78.045,96.576 -93.991,24.038Z" style="fill-rule:nonzero;"></path><path d="M2852.012,5596.556c-53.965,-77.346 15.956,-171.182 22.855,-253.663c29.369,-180.52 -12.101,-362.668 -18.147,-543.737c0,-0.306 0.411,-0.612 0.516,-0.202c63.35,253.634 177.183,569.061 -5.017,797.748c-0.097,-0.003 -0.202,-0.076 -0.207,-0.147Z" style="fill-rule:nonzero;"></path><path d="M3134.67,5552.824c-79.16,-46.365 -44.988,-164.953 -5.923,-227.67c5.37,34.449 9.702,69.33 7.773,104.276c-3.588,43.423 -15.553,82.502 -1.725,123.449c-0.042,0 -0.081,-0.018 -0.126,-0.055Z" style="fill-rule:nonzero;"></path><path d="M3497.223,5676.71c13.907,-118.181 101.572,-216.479 173.493,-304.032c-43.897,119.591 -108.801,234.472 -123.802,362.409c0.191,9.602 2.371,19.67 3.373,28.521c-41.505,-5.519 -52.546,-51.523 -53.064,-86.898Z" style="fill-rule:nonzero;"></path><path d="M3704.947,5814.888c-70.981,-98.445 119.364,-276.523 184.024,-346.151c-14.36,31.811 -32.656,65.715 -48.861,97.937c-37.584,71.471 -77.958,141.973 -98.555,220.611c-4.522,11.565 -12.29,22.408 -16.459,33.839c-7.126,2.662 -14.925,-1.555 -20.149,-6.237Z" style="fill-rule:nonzero;"></path><path d="M4210.03,5841.326c-83.012,-66.092 219.646,-217.369 274.694,-226.343c-59.955,62.151 -129.926,121.185 -207.432,161.881c-24.648,15.221 -99.424,40.254 -44.873,64.616c0.497,0.11 0.699,0.767 0.204,0.864c-6.731,0.11 -16.284,0.489 -22.593,-1.018Z" style="fill-rule:nonzero;"></path><path d="M5001.854,5780.214c-50.562,-167.16 376.798,-319.928 496.439,-375.387c-108.866,83.182 -223.524,158.379 -332.812,240.8c-58.055,40.903 -97.136,105.925 -163.404,134.736c-0.073,0 -0.141,-0.071 -0.222,-0.149Z" style="fill-rule:nonzero;"></path><path d="M2568.36,5487.708c-15.619,-56.454 -47.953,-103.352 -88.56,-145.707c-43.08,-46.608 -83.001,-95.893 -124.886,-143.512c104.627,42.729 320.464,131.394 281.946,275.207c-7.647,30.165 -52.379,46.155 -68.5,14.012Z" style="fill-rule:nonzero;"></path><path d="M2917.066,5747.84c-41.973,-10.073 -54.242,-59.625 -81.476,-88.333c-61.892,-75.846 -133.512,-144.2 -197.712,-217.544c-4.067,-5.444 -11.183,-10.492 -13.598,-15.744c70.429,34.062 139.233,72.295 202.629,118.175c53.651,44.339 127.469,98.395 125.325,174.919c2.463,19.542 -16.906,32.366 -35.169,28.526Z" style="fill-rule:nonzero;"></path><path d="M2297.84,1374.088c-15.436,-5.315 -26.681,-23.512 -32.408,-37.723c-4.92,-12.337 -6.302,-25.569 -5.603,-38.971c-33.931,17.016 -71.358,52.146 -110.429,48.683c-48.149,-15.027 -43.242,-92.109 -0.306,-111.227c56.935,-24.86 107.927,-61.4 156.037,-100.198c50.264,-128.411 81.706,-275.471 177.338,-378.954c35.245,-36.506 99.748,-23.195 115.93,25.556c14.004,37.516 11.654,76.058 2.968,114.603c-34.255,124.166 -127.874,223.438 -220.138,309.08c-5.716,17.464 -11.274,34.98 -16.647,52.538c64.205,-20.424 114.14,-72.907 147.84,-129.251c14.517,-19.322 39.154,-33.227 62.052,-17.893c39.455,28.668 16.009,75.543 -0.51,109.07c107.835,62.64 216.534,-138.704 317.217,-163.76c96.707,-33.274 127.019,88.633 122.292,161.965c68.626,-30.963 125.912,-81.546 186.759,-124.954c81.486,-64.915 139.342,-71.978 174.328,38.943c71.845,28.945 147.152,-50.248 222.129,-38.443c83.8,19.053 98.123,131.724 125.226,199.868c-20.042,-6.394 -41.115,-19.299 -60.212,-30.369c-34.09,-14.839 -57.461,-62.926 -98.147,-53.004c-96.035,32.968 -247.28,99.597 -285.291,-42.491c-83.47,42.57 -284.317,266.324 -354.162,121.161c-12.779,-38.861 -0.107,-82.156 -13.939,-121.12c-74.896,34.368 -123.841,107.961 -196.246,146.979c-65.297,40.364 -165.44,57.6 -215.134,-14.47c-53.368,45.564 -127.872,95.189 -200.944,74.381Z" style="fill-rule:nonzero;"></path><path d="M4606.111,2033.384c-73.363,-63.258 60.607,-235.165 89.356,-307.408c79.277,-144.841 167.665,-284.521 247.397,-429.121c-94.061,21.002 -186.338,50.971 -281.237,67.943c-26.375,4.19 -58.474,2.35 -82.19,-10.738c-39.581,-17.982 -32.036,-72.999 -67.576,-92.517c0.803,0.27 1.628,0.539 2.46,0.809c0.081,0.044 0.162,0.092 4.185,1.34c-24.954,-9.607 -50.897,4.551 -74.318,12.816c-63.98,25.483 -127.364,52.449 -190.894,79.178c-80.921,28.95 -167.892,81.743 -254.99,77.526c-24.148,-6.619 -47.961,-24.224 -52.928,-50.002c7.912,-39.387 55.676,-59.934 92.577,-67.123c117.631,-31.677 216.921,-82.224 327.779,-127.32c109.568,-49.55 215.516,-85.77 263.464,59.408c117.304,-4.339 230.59,-54.768 346.177,-75.98c23.104,-5.828 52.546,-12.269 71.973,6.03c57.673,64.061 -13.897,145.66 -43.758,206.304c-73.491,130.999 -151.402,257.4 -221.821,384.672c98.338,-104.292 436.839,-542.882 557.244,-542.832c151.7,68.34 328.24,-94.797 469.03,16.158c-49.484,43.436 -109.256,76.741 -176.142,82.198c-84.331,10.382 -167.042,48.524 -253.022,34.551c-24.109,-0.518 -49.042,-27.854 -69.539,-6.679c-124.702,103.603 -230.889,226.937 -337.332,348.648c-66.048,61.51 -284.56,381.074 -365.897,332.139Z" style="fill-rule:nonzero;"></path><path d="M2098.074,2338.185c-26.354,-34.24 -5.59,-95.867 38.956,-100.238c4.386,-1.136 8.354,-3.494 12.306,-5.622c60.937,-37.652 111.63,-89.037 165.158,-136.228c80.264,-68.969 157.23,-142.836 237.594,-211.001c131.957,-40.099 39.696,200.928 34.781,262.532c71.264,-19.333 124.197,-66.461 163.891,26.812c37.262,45.326 107.796,30.976 160.148,40.96c-59.523,65.632 -189.091,125.655 -245.063,23.507c-52.169,17.176 -128.845,57.804 -165.699,-4.999c-30.115,-53.342 1.384,-115.904 8.443,-171.894c-60.432,53.494 -121.674,105.998 -181.208,160.554c-47.21,35.658 -172.457,176.576 -229.305,115.616Z" style="fill-rule:nonzero;"></path><path d="M2781.628,2494.903c-60.361,-56.037 10.419,-129.761 44.983,-179.211c36.642,-51.065 70.309,-104.176 104.271,-157.131c21.172,-29.317 36.312,-67.576 68.801,-86.281c62.261,-26.81 76.213,47.875 46.812,88.456c17.684,-11.272 36.854,-19.374 57.671,-22.617c30.01,-6.655 54.048,12.944 81.423,19.704c215.471,-19.202 407.004,88.33 590.947,185.78c-161.342,4.42 -322.953,-41.63 -482.471,-67.728c-62.243,-8.168 -128.055,12.622 -184.904,-21.764c0,0.003 0.442,-0.379 0.442,-0.385c-71.224,23.512 -122.724,95.011 -175.956,144.778c-38.061,32.894 -95.304,123.912 -152.02,96.398Z" style="fill-rule:nonzero;"></path><path d="M4287.269,2367.709c-16.019,-64.352 48.809,-86.296 97.626,-101.415c42.774,-16.142 85.341,-32.876 128.199,-48.652c123.213,-50.384 194.537,-65.954 315.72,0.725c198.222,40.358 317.415,-76.948 523.185,51.607c56.194,29.424 114.182,62.258 165.103,97.935c-97.602,-7.166 -193.721,-25.682 -290.082,-41.272c-115.174,-18.733 -228.557,21.455 -343.746,18.775c-88.461,8.22 -159.395,-73.815 -246.387,-51.853c-96.354,28.555 -189.013,68.566 -283.537,102.596c-26.242,15.53 -58.579,3.256 -66.079,-28.445Z" style="fill-rule:nonzero;"></path><path d="M5707.281,2896.275c-70.115,-0.591 -140.41,-2.96 -210.392,-6.948c-38.307,-8.118 -92.648,5.224 -114.292,-35.682c-15.234,-25.865 -4.193,-60.01 18.197,-77.393c33.983,-23.991 75.187,-1.288 112.965,-3.266c138.937,9.984 281.027,-4.365 415.976,36.904c48.691,14.025 98.942,36.702 141.693,61.546c-121.271,10.916 -243.205,27.095 -364.147,24.839Z" style="fill-rule:nonzero;"></path></g></svg>