<svg id="Calque_1" xmlns="http://www.w3.org/2000/svg" viewBox="0 0 841.89 1190.55"><defs><style>
      .cls-1 {
        fill: #e6e000;
        stroke: #f7e948;
        stroke-miterlimit: 10;
      }
    </style></defs><path class="cls-1" d="M352.61,595.68c115.78,30.34,216.37,64.56,203.76,91.23-21.01,44.44-342.18,38.82-351.38,75.42-8.32,33.07,250.16,54.28,255.75,107.89,4.57,43.83-164.11,68.86-147.79,101.04,17.21,33.95,212.09,20.24,254.68,60.26,24.07,22.62,3.7,66.32-195.06,159.03h-59.66c207.57-85.74,238.24-128.59,216.43-151.7-39.69-42.05-262.46-28.62-277.05-62.85-14.11-33.11,186.41-64.07,171.18-104.61-8.46-22.53-80.62-40.17-139.65-54.6-62.66-15.32-114.46-19.97-128.89-40.74-7.56-10.88-1.09-20.77.47-23.15,35.19-53.75,338.31-41.93,354.58-75.83,6.11-12.72-26.95-34.45-197.08-74.03-14.23-5.4-36.81-15.63-34.08-26.87,5.16-21.29,97.36-30.55,110.58-31.88,101.48-10.2,139.63,13,218.2-.19,38.73-6.5,92.86-22.79,91.15-39.63-2.71-26.57-144.05-49.9-254.11-55.87-96.57-5.24-145.9,4.12-247.5-11.5-39.83-6.12-98.43-15.13-100.55-29.48-2.39-16.14,68.76-24.63,196.74-65.06,125.3-39.59,131.99-55.11,133.34-60.99,7.26-31.61-80.51-45.29-69.95-71.16,9.02-22.11,77.97-24.2,208.86-57.89,62.57-16.1,181.51-46.72,171.49-65.11-8.02-14.73-94.06-13.1-286.36-42.69-38.21-5.88-63.36-10.38-63.39-16.26-.06-12.01,104.47-21.9,194.55-28.46l7.38,11.29c-75.96,3.6-164.1,9.41-164.65,17.97-1.12,17.28,355.88,21.7,366.51,61.63,8.22,30.87-192.75,74.98-206.22,77.89-85.84,18.55-167.88,26.13-169.75,44.35-.59,5.78,7.52,6.35,31,25.92,23.08,19.24,37.7,31.75,34.76,45.22-2.8,12.84-20.61,22.12-35.04,28.71-105.23,48.07-284.7,70.12-281.36,91.15,2.29,14.41,89.55,22.81,117.52,25.5,65.15,6.28,104.16,2.42,149.33,2.07,128.78-.99,289.06,26.67,303.12,64.26,8.08,21.6-33.5,42.8-39,45.6-33.73,17.2-76.9,21.18-95.84,22.8-58.15,4.97-72.66-6.39-150.08-5.83-15.27.11-109.29.78-118.49,16.72-3.81,6.6,7.88,14.15,21.54,20.43Z"></path></svg>