<svg width="100%" height="100%" viewBox="0 0 9442 6200" version="1.1" xmlns="http://www.w3.org/2000/svg" xmlns:xlink="http://www.w3.org/1999/xlink" xml:space="preserve" style="fill-rule:evenodd;clip-rule:evenodd;stroke-linejoin:round;stroke-miterlimit:2;"><g><path d="M5392.1,3158.567c71.89,13.11 143.78,27.455 216.2,36.166c-91.778,-25.342 -184.521,-52.268 -279.027,-62.564c-101.983,-6.334 -203.878,-14.518 -305.687,-23.141c120.112,35.9 245.853,30.093 368.515,49.54Zm739.053,-351.972c9.504,132.078 6.776,265.122 3.96,397.288c-15.223,79.986 7.391,160.06 -107.968,125.741c-144.924,-35.373 -282.897,-24.373 -427.998,-39.067c-94.153,-14.52 -187.249,-36.254 -282.192,-46.197c-108.849,-3.96 -216.463,-17.775 -321.791,-46.548c-215.67,-45.579 -433.366,-103.569 -655.282,-97.144c-124.511,3.519 -239.782,60.539 -364.731,59.131c-2.289,2.728 -4.753,5.28 -7.393,7.479c-15.75,13.376 -37.22,7.303 -51.828,-5.544c-16.277,-0.264 -32.733,2.816 -48.571,-1.759c-28.951,-9.504 -52.092,-47.956 -34.316,-76.202c15.133,-26.311 47.956,-16.719 73.122,-19.271c42.764,-134.101 89.488,-259.93 120.022,-395.88c30.093,-161.819 39.245,-339.564 92.745,-493.288c20.062,-57.901 38.189,-116.855 61.154,-173.699c115.535,-208.894 347.309,-387.784 581.721,-437.677c60.627,-13.903 116.327,-41.883 173.875,-64.497c79.369,-14.608 162.083,-23.407 243.035,-25.783c216.815,22.263 411.281,146.508 568.347,291.081c254.828,284.92 362.532,666.545 384.09,1041.836Z" style="fill:#fb0050;fill-rule:nonzero;"></path><path d="M3854.919,2877.967c-29.376,-45.386 -19.075,-102.951 -17.503,-154.075c2.687,-109.626 28.365,-215.553 59.307,-320.03c30.115,-135.482 53.635,-280.938 98.726,-411.454c30.732,-96.761 86.185,-182.868 147.999,-262.403c91.206,-184.496 211.048,-414.16 431.395,-456.748c-19.758,-54.358 26.061,-75.183 73.07,-70.149c81.712,0.453 159.605,28.498 241.188,25.624c22.145,-9.297 47.413,3.496 69.687,8.501c25.745,3.422 51.425,7.253 77.17,10.423c79.033,2.566 155.332,21.614 230.215,45.98c92.639,22.24 184.55,47.062 274.423,78.961c23.862,-16.192 50.934,3.356 65.162,23.454c102.974,40.32 196.978,108.286 268.514,192.642c48.88,60.577 78.893,132.857 110.527,203.234c48.136,109.986 121.741,214.618 132.33,336.956c4.701,40.759 0.185,83.556 9.511,123.279c13.887,43.771 74.451,156.805 7.384,175.283c-64.429,3.507 -82.214,-120.02 -93.245,-168.572c-47.97,-92.186 -100.379,-181.91 -149.822,-273.267c-158.803,-250.94 -403.253,-383.493 -681.976,-459.176c-239.672,-64.058 -414.414,-32.174 -645.101,43.523c-37.283,7.069 -58.174,40.948 -89.488,59.663c-33.778,22.134 -74.913,30.054 -103.611,60.213c-128.708,206.842 -220.083,436.463 -283.823,671.269c-32.631,119.751 -67.457,238.902 -104.531,357.344c-17.566,37.948 -14.676,101.296 -59.059,117.22c26.689,53.763 -33.445,91.481 -68.45,42.306Zm2155.015,-843.619c-1.687,-4.12 -3.41,-8.229 -5.161,-12.324c-0.363,0.131 -0.725,0.252 -1.093,0.369c2.075,3.987 4.158,7.972 6.253,11.955Zm-445.955,-464.817c-6.697,-4.496 -13.387,-8.992 -20.093,-13.482c-2.665,-0.831 -5.321,-1.692 -7.972,-2.566c9.4,5.285 18.728,10.677 28.065,16.048Zm-223.052,-95.91c-2.841,-1.604 -5.679,-3.214 -8.504,-4.834c-2.527,-0.342 -5.062,-0.678 -7.591,-1.009c5.37,1.93 10.736,3.881 16.095,5.843Z" style="fill:#7d002a;fill-rule:nonzero;"></path><path d="M5667.48,5042.986c-68.845,-17.595 -68.748,-99.908 -17.877,-138.867c-188.035,36.301 -373.153,86.573 -560.24,126.811c-22.614,3.519 -39.772,-14.872 -44.789,-35.461c-5.807,-24.11 3.169,-52.973 27.104,-63.179c70.825,-29.973 144.355,-52.527 216.711,-78.36c-206.935,-37.094 -417.883,-44.476 -627.111,-61.463c46.823,-12.565 99.228,-19.296 148.448,-27.279c119.781,-21.026 609.806,-73.188 641.289,78.7c85.877,-19.598 171.852,-38.991 258.963,-52.385c46.098,-9.409 94.651,-15.216 138.234,6.506c39.907,16.615 36.152,77.337 2.478,98.958c24.662,-8.632 49.544,-16.518 74.782,-23.281c8.447,-2.262 16.944,-4.307 25.464,-6.24c-30.44,-83.888 32.859,-167.662 64.731,-242.168c57.446,-119.616 211.359,-343.36 356.315,-213.197c87.467,-11.788 103.467,103.163 102.478,167.973c-1.617,25.558 -6.019,51.556 -10.294,76.377c-18.499,-6.053 -32.264,-19.625 -42.966,-35.389c-6.733,10.7 -14.383,20.756 -22.308,30.735c14.944,1.577 27.899,13.142 33.593,28.764c21.841,43.455 6.053,90.877 -20.499,128.388c-62.603,101.694 -261.928,251.239 -369.648,141.057c-76.037,16.212 -151.189,35.006 -223.602,63.959c-48.458,17.868 -98.676,39.083 -151.257,29.041Z" style="fill:#abcf10;fill-rule:nonzero;"></path><path d="M4347.677,4939.213c-41.534,-3.079 -82.538,-10.382 -123.63,-17.07c-21.569,-3.501 -43.061,-7.215 -64.454,-11.333c-53.61,33.037 -120.862,9.303 -176.4,-7.188c-284.709,57.595 -582.906,-196.992 -438.098,-487.883c47.062,-104.837 155.541,-222.743 281.438,-189.916c21.866,-28.638 56.011,-39.583 88.219,-51.797c33.56,-12.275 50.702,28.304 66.094,50.474c14.687,-11.556 36.141,-9.995 48.384,4.523c29.225,25.95 47.253,63.431 38.488,103.048c68.205,-6.12 90.567,17.318 86.82,85.259c-11.689,71.32 -57.431,132.474 -85.663,198.244c1.259,2.726 2.462,5.481 3.618,8.256c67.45,21.213 110.541,83.984 92.065,154.681c9.61,10.346 17.845,22.004 24.168,35.366c63.179,9.792 126.318,24.533 190.466,25.069c17.924,-43.527 66.691,-25.648 99.946,-13.333c54.194,17.093 106.475,39.856 156.451,66.876c-62.501,11.779 -129.469,18.431 -193.996,15.18c-18.985,33.906 -59.575,34.902 -93.916,31.543Zm-528.28,-138.304c-13.167,-9.621 -23.571,-23.166 -31.341,-38.31c-14.622,4.251 -29.665,9.031 -44.464,12.815c18.713,8.348 37.788,15.271 57.406,21.071c6.123,1.588 12.252,3.068 18.399,4.424Zm-150.581,-126.913c1.665,-0.903 3.32,-1.827 4.969,-2.762c-0.05,-1.433 -0.083,-2.863 -0.099,-4.293c-1.669,2.322 -3.291,4.667 -4.87,7.055Zm-70.762,-50.283c18.539,-33.857 46.742,-62.391 76.301,-87.332c8.452,-7.15 17.41,-13.793 26.723,-19.958c18.145,-66.698 39.786,-132.673 70.257,-194.829c-117.285,27.239 -209.654,187.24 -173.28,302.119Zm342.186,-7.605c0.009,-0.002 0.02,-0.005 0.029,-0.005c6.084,-1.099 12.236,-1.91 18.433,-2.491c-0.052,-0.054 -0.106,-0.11 -0.162,-0.162c-3.458,-3.163 -6.988,-6.195 -10.578,-9.132c-2.543,3.951 -5.118,7.88 -7.722,11.79Zm69.543,-81.047c0.759,0.746 1.516,1.491 2.271,2.239c8.078,-15.996 15.971,-32.1 23.864,-48.26c7.846,-16.034 15.73,-32.037 23.468,-48.089c-33.571,17.048 -50.053,47.44 -64.326,80.696c5.068,4.242 9.99,8.684 14.723,13.414Z" style="fill:#abcf10;fill-rule:nonzero;"></path><path d="M6035.227,4750.966c-23.686,-11.603 -27.592,-41.464 -24.727,-64.851c3.106,-61.111 8.434,-122.036 13.025,-183.025c13.146,-259.276 54.795,-515.87 75.355,-774.541c7.301,-106.083 3.338,-212.122 -0.295,-318.243c-3.205,-328.047 8.211,-659.11 -42.599,-984.349c-43.518,-262.022 -128.417,-351.974 -303.842,-536.718c-52.27,-56.068 -93.828,-111.198 -150.82,-159.224c-136.151,-106.603 -303.964,-164.889 -476.999,-164.926c-99.573,4.19 -199.999,8.619 -298.287,24.955c-113.181,32.496 -231.143,58.676 -334.899,116.102c-156.841,83.568 -262.766,231.68 -332.919,390.805c-38.017,89.821 -53.279,187.121 -73.884,281.902c-30.748,147.495 -64.29,294.42 -96.088,441.637c0.011,-0.07 0.023,-0.137 0.029,-0.205c0.182,-1.034 0.356,-2.063 0.538,-3.386c-22.046,119.947 -41.574,240.99 -25.004,361.611c100.512,37.932 -87.116,278.28 -87.933,-58.316c-4.503,-216.583 60.12,-425.065 102.864,-634.959c35.242,-147.893 52.398,-302.06 113.868,-442.248c78.328,-170.996 194.009,-330.689 362,-422.193c53.002,-32.285 111.081,-55.171 170.447,-72.674c124.96,-42.631 251.915,-75.032 384.614,-76.558c117.839,-13.495 236.595,-4.539 351.71,23.657c121.693,33.789 237.264,100.622 330.324,185.67c80.076,85.816 156.539,174.107 234.865,257.819c225.525,233.088 234.085,580.903 246.286,886.62c13.299,272.247 5.992,545.213 11.874,817.631c-8.573,226.379 -45.057,450.402 -66.702,675.698c-8.767,106.468 -14.099,213.341 -22.875,319.861c-2.178,42.768 1.093,123.993 -59.924,112.448Z" style="fill-rule:nonzero;"></path><path d="M5910.211,4826.442c-155.66,-20.895 -312.506,-13.658 -468.887,-11.648c-166.079,-7.862 -330.446,-38.646 -497.072,-40.484c-241.215,-3.888 -482.247,7.731 -723.397,-1.313c-53.666,-3.471 -132.839,28.009 -168.593,-24.463c-18.402,-50.56 -4.755,-107.898 -7.474,-160.851c0,-47.4 -0.671,-94.626 -2.739,-141.933c-15.444,-163.797 -36.107,-327.279 -64.92,-489.269c-52.351,-250.532 -88.028,-501.539 -97.063,-757.24c-2.025,-36.657 -5.206,-73.253 -10.659,-109.574c-6.735,-17.32 -3.967,-38.092 6.524,-53.829c12.32,-18.478 40.126,-30.268 58.082,-11.705c29.653,42.379 20.163,100.949 27.536,150.295c6.368,120.29 12.784,227.636 26.829,344.844c52.799,385.288 156.728,766.35 137.234,1158.448c114.424,-9.094 228.769,-2.638 343.304,-0.02c108.747,-0.083 217.373,-4.949 326.103,-4.832c221.761,-8.328 441.112,27.685 661.531,41.705c146.193,-3.386 292.437,-8.145 438.114,8.533c43.347,1.865 84.426,9.443 73.83,64.409c-5.686,26.639 -30.944,47.086 -58.28,38.928Z" style="fill-rule:nonzero;"></path><path d="M3899.83,3501.492c-50.544,-218.058 -64.256,-451.441 -74.084,-675.173c2.717,-255.868 43,-514.295 117.388,-759.115c41.953,-119.168 78.333,-240.672 130.314,-355.934c76.422,-146.693 183.888,-276.085 293.992,-398.682c145.035,-161.623 365.596,-181.412 568.608,-159.537c162.849,12.721 326.866,25.86 480.004,87.197c230.774,76.578 440.851,224.735 585.942,420.08c78.517,125.331 105.605,272.783 151.604,411.367c54.522,152.356 59.681,313.817 63.094,473.841c8.893,272.265 -7.819,549.822 -110.428,805.309c-22.22,-138.926 11.738,-348.027 27.074,-509.736c1.448,-258.628 18.85,-524.862 -71.253,-771.961c-48.855,-168.063 -90.422,-345.013 -232.556,-460.998c-166.973,-168.89 -385.91,-268.163 -614.102,-322.325c-163.707,-24.736 -331.522,-42.059 -497.121,-36.936c-200.801,6.206 -328.817,151.761 -439.243,302.083c-39.137,51.671 -78.927,103.321 -111.901,159.294c-50.028,87.039 -77.49,184.199 -110.869,278.277c-91.504,243.089 -132.569,503.019 -148.353,761.462c-2.737,146.805 12.452,292.8 27.538,438.675c11.011,87.35 16.827,176.889 39.157,262.038c22.069,46.629 -44.167,111.96 -74.805,50.776Z" style="fill-rule:nonzero;"></path><path d="M6057.634,3369.437c-244.934,-2.701 -477.961,-83.588 -715.576,-131.118c-181.996,-21.634 -366.084,-4.958 -548.531,-20.931c-121.862,-7.756 -243.344,-26.117 -365.296,-27.691c-68.13,4.476 -135.177,19.188 -203.402,23.384c-86.503,5.433 -173.429,1.074 -259.997,4.649c-56.737,38.524 -83.676,-54.002 -40.234,-85.692c16.982,-15.133 42.5,-15.045 63.882,-15.309c78.364,-0.376 156.688,-0.554 235.029,-3.449c78.022,-4.796 154.554,-23.333 232.831,-24.362c125.457,6.181 250.581,21.247 375.994,30.453c134.617,9.371 270.006,3.458 404.766,9.414c117.974,1.98 232.808,29.066 345.55,61.859c111.766,30.561 231.817,51.29 344.403,68.538c60.055,10.752 125.638,1.104 183.377,17.16c47.082,38.108 4.327,108.184 -52.795,93.094Z" style="fill-rule:nonzero;"></path><path d="M6097.496,4904.894c-11.662,-12.266 -14.854,-40.872 -14.345,-53.763c-6.447,-101.287 9.083,-203.038 30.629,-301.813c43.316,-243.22 142.947,-469.561 258.603,-686.26c0.176,-0.351 0.527,-0.088 0.451,0.178c-89.607,239.67 -162.977,492.382 -194.475,745.121c-10.344,84.331 -18.176,154.969 -12.856,235.964c12.344,41.234 -28.761,101.535 -68.007,60.573Z" style="fill-rule:nonzero;"></path><path d="M6175.367,4848.272c-73.12,-43.967 50.614,-268.692 73.039,-334.814c71.235,-159.733 146.907,-317.417 225.174,-473.841c-55.705,174.213 -119.396,350.444 -183.201,523.38c-21.808,65.342 -47.134,129.514 -66.88,194.55c-6.346,33.717 -26.619,61.026 -43.741,88.672c1.102,2.088 -2.868,2.55 -4.39,2.052Z" style="fill-rule:nonzero;"></path><path d="M5869.542,4750.125c-18.478,-17.334 -17.51,-49.715 -3.78,-69.514c70.115,-177.876 3.69,-375.568 -60.102,-545.909c-12.583,-36.078 -24.991,-72.154 -37.398,-108.232c22.824,34.006 45.05,74.325 67.045,110.872c97.879,150.775 160.452,332.417 125.836,513.09c-7.362,41.466 -34.76,137.025 -91.6,99.692Z" style="fill-rule:nonzero;"></path><path d="M5831.991,4791.662c-61.535,-144.174 -89.735,-305.62 -126.962,-456.775c50.637,92.459 96.216,187.963 134.984,286.065c21.098,61.339 55.209,120.366 55.018,186.645c0.417,7.368 1.635,14.173 2.437,20.756c-26.651,6.981 -51.502,-16.94 -65.477,-36.691Z" style="fill-rule:nonzero;"></path><path d="M3680.945,4781.466c-35.573,-36.348 -4.034,-92.941 -6.429,-137.678c17.881,-228.485 -91.914,-437.402 -183.895,-639.124c-31.383,-70.746 -66.434,-142.343 -96.358,-212.591c184.458,269.064 415.824,562.285 356.026,909.229c-2.113,17.248 -2.201,36.166 -8.272,52.621c-8.267,23.186 -38.585,48.738 -61.073,27.543Z" style="fill-rule:nonzero;"></path><path d="M3837.558,4805.846c-21.97,-61.066 -6.364,-129.267 -15.142,-193.031c-16.899,-169.003 -55.525,-335.728 -96.691,-500.266c34.634,55.478 59.118,121.333 84.385,182.937c39.718,98.847 75.377,200.305 89.582,306.392c4.01,70.845 21.283,146.098 0.61,214.699c-16.658,31.077 -51.517,16.219 -62.744,-10.731Z" style="fill-rule:nonzero;"></path><path d="M3619.151,4790.035c15.982,-14.291 35.981,-4.96 51.74,3.341c1.847,0.881 2.728,3.433 2.73,5.366c-7.026,33.638 -49.846,20.33 -54.471,-8.706Z" style="fill-rule:nonzero;"></path><path d="M3503.551,4676.895c2.64,-24.11 20.325,-48.307 46.372,-48.307c25.957,0 37.574,30.356 35.109,52.004c-2.64,24.11 -20.328,48.307 -46.372,48.307c-25.959,0 -37.574,-30.359 -35.109,-52.004Z" style="fill-rule:nonzero;"></path><path d="M3436.594,4497.634c-9.15,-8.272 -17.334,-17.422 -24.461,-27.543c-8.977,-12.847 -14.345,-27.541 -19.008,-42.412c0.045,-0.02 0.086,-0.041 0.128,-0.061c-1.097,-8.35 -8.182,-18.271 4.179,-6.224c21.296,19.485 34.211,48.434 39.308,76.335c-0.05,0 -0.101,-0.027 -0.146,-0.095Z" style="fill-rule:nonzero;"></path><path d="M3977.268,5033.89c-31.485,-15.658 -49.864,-48.057 -68.462,-76.553c-50.411,-85.338 -94.216,-177.536 -138.757,-264.602c106.17,99.543 200.364,216.254 272.425,341.772c-15.955,14.538 -45.737,7.645 -65.207,-0.617Z" style="fill-rule:nonzero;"></path><path d="M4408.176,5052.15c-19.474,-7.909 -25.923,-30.994 -26.252,-50.195c-78.116,-141.068 -30.516,-307.703 3.902,-454.973c9.61,93.644 8.001,189.105 24.655,282.656c4.496,25.056 14.728,60.044 25.234,80.317c17.001,29.03 33.411,60.643 27.633,95.646c-3.419,27.004 -26.545,57.032 -55.171,46.548Z" style="fill-rule:nonzero;"></path><path d="M4744.255,4914.738c-124.194,-75.81 42.687,-393.269 92.137,-490.384c-36.053,163.862 -70.097,326.999 -92.137,490.384Z" style="fill-rule:nonzero;"></path><path d="M5088.8,4844.429c-103.458,-47.091 80.513,-240.21 121.261,-291.698c21.418,-24.738 44.163,-52.083 66.346,-74.267c-45.496,84.771 -96.581,166.793 -144.805,249.124c-15.133,28.092 -26.279,50.673 -36.42,79.461c-0.018,17.323 24.288,13.892 35.772,20.575c-12.178,6.147 -27.254,17.39 -42.153,16.805Z" style="fill-rule:nonzero;"></path><path d="M5367.285,5016.013c-46.764,-120.27 225.379,-354.434 307.807,-435.476c-87.613,139.068 -199.014,270.571 -264.635,421.893c3.359,2.505 6.814,5.496 9.72,8.13c-1.104,5.064 -6.828,9.551 -10.119,13.374c-11.797,13.899 -35.321,7.017 -42.773,-7.92Z" style="fill-rule:nonzero;"></path><path d="M3465.115,4809.901c-40.198,-46.677 -43.771,-112.71 -55.345,-170.796c-18.742,-116.237 -34.35,-235.128 -42.768,-351.532c49.898,128.073 91.335,258.999 129.053,391.077c6.355,17.458 10.405,36.42 20.69,52.087c16.928,11.407 23.445,33.154 18.501,52.5c-4.992,31.71 -45.712,52.407 -70.131,26.664Z" style="fill-rule:nonzero;"></path><path d="M3981.528,4392.459c-11.527,-10.824 -12.759,-27.189 -13.022,-41.885c-0.529,-35.461 2.199,-70.658 5.368,-105.943c3.519,-39.509 7.567,-79.105 12.142,-118.526c10.385,-89.753 23.231,-179.153 37.574,-268.291c0,-0.264 0.439,-0.351 0.439,0c3.697,85.969 5.719,172.026 5.719,258.085c0,38.452 -0.351,76.817 -1.144,115.181c-0.615,30.71 -1.935,61.508 -1.847,92.218c0,18.83 2.201,35.988 -5.014,53.939c-3.082,7.832 -8.535,18.127 -17.248,20.943c-2.25,0.696 -4.512,1.032 -6.735,1.032c-5.94,0 -11.621,-2.397 -16.23,-6.751Z" style="fill-rule:nonzero;"></path><path d="M3977.518,3783.745c7.427,-63.251 86.818,-65.083 81.482,3.69c-7.427,63.251 -86.818,65.083 -81.482,-3.69Z" style="fill-rule:nonzero;"></path></g></svg>