<svg width="100%" height="100%" viewBox="0 0 9442 6200" version="1.1" xmlns="http://www.w3.org/2000/svg" xmlns:xlink="http://www.w3.org/1999/xlink" xml:space="preserve" style="fill-rule:evenodd;clip-rule:evenodd;stroke-linejoin:round;stroke-miterlimit:2;"><g><path d="M6490.48,1943.714c36.721,67.959 46.181,146.73 41.752,221.521c-0.602,10.963 -1.201,22.003 -1.878,32.667c-2.853,47.232 -9.687,94.315 -13.516,141.472c-0.902,15.169 -1.726,30.264 -1.651,45.431c0.075,18.097 0.75,36.044 1.501,54.066c0.675,16.521 1.127,33.041 1.276,49.56l0,18.849c6.382,10.288 9.912,22.528 9.612,34.693c-0.225,12.24 -1.728,25.908 -7.659,36.871c-6.609,11.94 -18.024,22.001 -31.465,22.001c-3.228,0 -6.532,-0.602 -9.987,-1.878c-18.849,-7.057 -24.781,-26.732 -28.009,-44.604c-18.399,13.066 -42.953,15.694 -65.481,10.288c-272.734,-14.944 -546.218,1.201 -819.105,-9.012c-152.435,-3.754 -303.746,-22.151 -454.457,-44.679c-73.14,-10.738 -146.205,-24.254 -220.394,-22.528c-213.937,5.707 -434.408,1.201 -645.718,-28.159c-104.226,-11.715 -208.155,15.244 -312.608,10.888c-19.598,0 -40.85,-2.328 -60.299,-7.96c-6.157,2.63 -12.465,3.305 -19.074,1.878c-15.092,-3.679 -23.278,-14.343 -27.709,-27.559c-12.691,-12.54 -20.2,-29.36 -18.999,-51.288c3.829,-12.165 7.661,-24.404 11.64,-36.644c0.375,-0.452 0.752,-0.902 1.127,-1.351l0,-2.103c32.59,-101.525 68.709,-202.524 110.685,-300.518c32.29,-84.555 67.357,-167.906 101.675,-251.635c27.784,-72.688 54.141,-146.353 100.022,-210.108c114.365,-155.14 244.801,-304.497 399.339,-422.993c37.546,-30.936 75.543,-60.823 115.191,-88.984c23.88,-22.151 78.171,-38.07 89.434,-74.566c23.88,-6.382 61.427,-14.041 94.616,-27.107c1.578,0.75 3.155,1.726 4.581,2.778c5.707,-0.977 11.338,-1.878 17.046,-2.778c28.311,4.504 57.071,7.209 85.38,7.809c54.743,-0.375 108.584,-11.94 162.199,-22.376c11.115,-2.93 22.453,-5.033 33.866,-6.534c2.178,3.08 3.831,6.382 5.108,9.837c84.553,0.302 169.333,0.15 253.586,6.534c-9.162,-11.49 -11.94,-28.011 -8.787,-42.578c-24.329,-3.078 -49.034,-9.987 -70.36,-21.25c29.435,-19.675 67.133,-42.278 103.477,-34.093c12.691,6.534 18.624,15.244 19.673,23.805c5.333,0.45 10.738,1.127 16.071,2.028c32.74,-27.559 89.134,-18.247 126.38,-4.056c28.61,3.981 57.971,8.562 81.023,15.019c47.234,13.141 122.927,23.58 113.915,89.209c43.78,18.699 81.475,48.586 124.503,68.709c26.058,11.64 64.655,14.645 65.554,51.139c10.965,8.035 21.778,16.371 32.365,24.781c-4.806,-6.234 -8.335,-13.443 -10.738,-20.952c1.201,-0.977 3.756,-0.675 5.483,-1.052c24.029,-3.38 49.41,15.619 63.678,33.716c-11.415,6.082 -26.058,9.837 -38.447,4.506c67.282,55.493 128.782,117.145 192.461,176.616c-12.465,-13.441 -23.653,-28.084 -34.693,-42.728c-23.954,-31.988 -44.979,-66.156 -64.428,-101.074c-0.075,-0.15 0,-0.45 0.225,-0.3c45.956,23.505 88.082,53.315 122.85,86.056c11.49,10.813 23.43,21.776 27.109,37.77c1.876,8.185 3.003,16.896 0.225,24.481c14.193,5.855 26.133,21.701 29.06,38.295c7.886,26.507 16.971,52.49 26.807,78.248c-2.628,-17.422 -5.106,-34.843 -7.734,-52.265c0,-0.15 0.15,-0.375 0.3,-0.225c27.709,22.903 49.035,50.387 66.833,81.475c9.085,15.919 16.746,32.74 23.954,49.56c3.228,7.584 5.857,15.469 8.485,23.278c3.38,10.363 5.106,19.975 4.506,30.788c-0.527,9.537 -2.93,17.195 -6.909,25.756c-3.155,6.834 -9.237,12.242 -16.071,14.719c8.185,19.224 16.221,38.522 23.88,57.971c29.212,65.856 38.522,135.392 45.431,205.527c11.34,18.022 22.153,36.494 32.29,55.343Z" style="fill:#fb0050;fill-rule:nonzero;"></path><path d="M5734.24,998.915c1.134,-56.915 68.113,-56.898 69.236,-0.004c-1.134,56.915 -68.115,56.898 -69.236,0.004Z" style="fill:#7d002a;fill-rule:nonzero;"></path><path d="M5743.635,1025.622c-43.401,-16.034 -23.595,-102.635 25,-80.572c43.709,16.286 23.072,102.927 -25,80.572Z" style="fill:#7d002a;fill-rule:nonzero;"></path><path d="M5413.174,882.681c1.134,-56.915 68.113,-56.898 69.236,-0.004c-1.134,56.915 -68.115,56.898 -69.236,0.004Z" style="fill:#7d002a;fill-rule:nonzero;"></path><path d="M3588.473,2307.536c2.778,1.426 5.483,2.853 8.185,4.356c-5.558,-8.637 -10.513,-17.647 -12.466,-27.409c-0.525,-2.93 -0.9,-6.007 -1.05,-9.012c-2.478,8.485 -4.881,16.971 -7.284,25.381c4.204,2.253 8.485,4.431 12.615,6.684Zm1719.682,-1415.41c-8.86,16.069 -23.503,28.159 -39.724,36.719c-42.651,16.221 -89.659,14.268 -135.015,20.275c-11.415,1.503 -22.753,3.604 -33.866,6.534c-53.616,10.436 -107.458,22.001 -162.199,22.376c-28.311,-0.6 -57.071,-3.303 -85.38,-7.809c-5.108,-0.827 -10.213,-1.651 -15.319,-2.628c-2.103,0.9 -4.206,1.726 -6.307,2.628c-33.191,13.066 -70.737,20.725 -94.616,27.107c-11.263,36.496 -65.556,52.415 -89.436,74.568c-39.649,28.159 -77.644,58.046 -115.19,88.984c-154.54,118.494 -284.976,267.853 -399.341,422.993c-45.881,63.753 -72.238,137.418 -100.022,210.108c-34.318,83.726 -69.386,167.08 -101.675,251.633c-41.977,97.996 -78.096,198.995 -110.685,300.518c-0.45,1.201 -0.827,2.328 -1.127,3.454c-3.979,12.24 -7.809,24.479 -11.638,36.644c-4.581,14.495 -9.012,28.912 -13.443,43.405c-5.181,21.1 -23.428,47.457 -48.134,37.995c-10.062,-4.506 -18.022,-11.563 -25.531,-19.299c-6.532,2.703 -13.968,3.08 -20.8,0.527c-3.38,-1.276 -6.309,-3.005 -8.862,-5.183c-21.627,9.387 -41.45,-8.935 -59.547,-18.772c-39.948,-27.936 -94.916,-39.499 -125.178,-78.847c-13.593,-26.432 1.576,-54.366 7.659,-80.649c11.94,-42.201 22.303,-84.93 34.993,-126.906c29.962,-97.244 60.9,-195.238 110.91,-284.372c21.627,-88.984 66.458,-172.037 110.535,-251.859c52.115,-82.902 102.577,-168.731 175.415,-235.339c53.991,-78.471 120.524,-148.156 207.255,-191.259c32.665,-20.125 65.556,-40.023 98.746,-59.474c-1.876,-5.256 -3.003,-11.338 -3.153,-18.322c0.75,-36.119 27.934,-49.335 48.059,-39.574c8.785,-35.667 48.959,-38.522 62.776,-8.56c-0.527,-2.928 -0.827,-6.157 -0.902,-9.537c0.977,-49.71 52.188,-56.017 65.931,-18.924c7.96,-4.054 15.919,-8.034 23.954,-12.015c72.013,-28.459 143.425,-59.622 217.167,-83.202c57.746,-16.369 119.995,-21.776 172.485,-53.09c6.007,-8.26 14.118,-14.418 24.254,-16.671c19.074,-4.204 34.168,13.591 38.297,30.262c1.276,7.209 1.276,13.893 0.225,20.125c92.438,-26.657 191.109,-34.693 285.651,-50.087c23.88,-1.351 48.059,-7.134 71.863,-1.951c20.95,5.331 39.649,19.074 50.912,37.471Z" style="fill:#7d002a;fill-rule:nonzero;"></path><path d="M6274.713,4994.071c-66.811,-2.516 -143.573,-26.023 -169.167,-94.28c-103.348,7.582 -206.33,2.747 -309.169,-2.739c-104.53,-3.683 -212.872,-5.142 -305.926,-58.645c-49.443,-25.429 -12.636,-93.121 19.299,-118.119c22.753,-14.493 48.811,-19.299 75.168,-22.303c136.407,-18.712 274.316,-29.748 412.03,-22.676c39.218,2.474 78.632,5.817 116.812,15.523c43.155,-1.607 86.358,-2.885 129.505,-4.758c22.73,-25.023 46.771,-48.793 76.045,-66.196c2.812,-12.305 6.832,-24.347 10.896,-36.258c4.006,-11.801 8.56,-23.289 13.493,-34.664c-53.597,-56.412 1.2,-277.732 92.058,-171.384c4.729,-6.35 9.935,-12.347 15.723,-17.876c7.937,-7.597 17.413,-13.843 27.526,-17.495c13.768,-36.538 21.404,-87.315 62.059,-103.179c16.33,-5.402 36.99,-0.963 47.953,12.849c41.481,-27.251 103.853,-4.514 125.736,37.99c16.202,36.452 20.219,76.856 21.85,116.381c191.157,53.576 220.981,294.22 59.178,401.132c4.892,51.09 -29.643,91.17 -80.095,96.571c-54.687,75.65 -164.244,83.378 -247.724,59.424c-62.382,19.318 -127.606,33.918 -193.249,30.702Zm473.774,-254.383c116.543,-60.793 109.369,-205.769 -19.299,-246.083c-4.691,25.375 -11.636,50.325 -20.646,74.497c36.711,20.688 56.208,65.383 38.388,104.936c0.492,1.988 0.957,3.972 1.388,5.95c4.389,20.235 3.403,40.31 -1.217,59.903c0.463,0.263 0.93,0.529 1.386,0.798Zm-99.582,-60.968c3.72,-2.91 7.316,-5.93 10.838,-9.108c1.569,-1.642 3.108,-3.306 4.621,-4.992c-0.511,-0.7 -1.03,-1.399 -1.553,-2.095c-0.498,-0.565 -1,-1.127 -1.505,-1.682c-3.991,6.038 -8.128,12.001 -12.401,17.878Zm-8.947,-131.851c3.947,-9.725 7.499,-19.552 10.806,-29.518c3.874,-13.153 7.186,-26.396 9.992,-39.816c-26.759,-1.988 -53.876,-1.373 -79.995,5.067c4.135,8.064 5.9,17.691 6.784,26.3c0.928,9.264 -0.015,18.289 -2.067,27.111c18.883,0.571 36.09,9.985 54.48,10.856Zm-43.626,-178.389c-1.196,8.182 -2.636,16.334 -4.293,24.449c0.256,-0.038 0.508,-0.081 0.763,-0.119c24.368,-3.677 49.17,-4.014 73.715,-1.503c-2.441,-18.137 -2.955,-37.219 -9.887,-54.303c-18.837,-17.269 -42.453,-10.115 -56.794,8.814c-1.142,7.551 -2.386,15.1 -3.504,22.663Z" style="fill:#abcf10;fill-rule:nonzero;"></path><path d="M3447.695,4942.294c-102.2,-13.06 -289.701,-32.867 -314.403,-154.325c-12.497,-46.208 10.283,-92.773 48.017,-119.784c-6.617,-12.218 -11.48,-25.435 -15.131,-38.87c-0.559,-0.198 -1.109,-0.448 -1.649,-0.767c-1.211,-0.713 -2.33,-1.547 -3.37,-2.47c-31.461,52.179 -76.921,114.248 -145.816,104.395c-17.665,22.251 -42.897,34.733 -69.407,43.078c-25.758,10.513 -44.829,-19.224 -44.601,-41.45c-5.946,-50.669 19.193,-94.024 46.206,-134.557c1.132,-41.684 6.688,-83.148 14.566,-124.023c-9.577,-47.432 -3.985,-98.498 17.47,-142.112c10.844,-23.405 25.002,-44.652 42.071,-63.857c31.684,-59.128 78.797,-127.985 149.415,-139.723c151.945,-8.766 227.834,234.614 153.052,346.391c38.036,31.907 39.864,88.257 33.801,134.2c69.12,-3.987 142.091,13.355 194.464,60.631c66.052,-11.426 145.053,-12.939 199.394,32.023c66.517,-56.979 141.151,-114.765 232.913,-114.732c100.67,-1.344 213.132,32.307 278.094,112.994c40.585,13.949 76.558,76.039 32.634,106.652c-23.997,11.261 -30.677,40.533 -55.343,51.742c-53.192,23.27 -113.68,19.748 -170.546,25.971c-22.674,36.588 -67.955,39.008 -106.768,39.758c-170.911,13.364 -344.052,44.408 -515.063,18.833Zm-128.2,-120.814c0.358,-4.706 1.059,-9.433 2.151,-14.068c-6.955,-3.727 -13.812,-7.601 -20.602,-11.484c-18.57,-10.573 -35.644,-22.913 -51.277,-37.126c-4.831,5.729 -8.466,12.605 -10.579,19.8c18.395,26.144 49.653,38.468 80.306,42.878Zm204.556,-41.871c3.635,-4.856 2.853,-11.634 2.345,-17.34c-5.644,1.376 -11.263,2.83 -16.863,4.35c-0.884,0.261 -1.763,0.529 -2.643,0.796c-0.325,4.243 -0.961,8.439 -1.93,12.541c6.351,0.013 12.72,-0.133 19.091,-0.348Zm71.577,-2.322c17.172,-0.467 34.343,-0.913 51.515,-1.332c7.691,-0.194 15.383,-0.386 23.072,-0.573c5.436,-5.777 10.994,-11.428 16.653,-16.971c-29.679,-9.05 -61.283,-11.348 -92.106,-8.626c1.167,9.049 1.453,18.241 0.865,27.501Zm82.6,-2.097c12.215,-0.29 24.431,-0.556 36.65,-0.779c-4.766,-5.077 -10.661,-9.064 -17.044,-11.79c-6.573,4.118 -13.109,8.303 -19.606,12.568Zm130.515,-1.188c0.886,0.013 1.774,0.031 2.662,0.046c37.669,-23.753 80.772,-35.181 124.469,-41.646c64.682,-13.851 129.425,-28.487 195.279,-35.558c-131.489,-67.557 -239.793,-55.51 -361.103,23.616c3.843,4.985 7.347,10.254 10.458,15.771c6.821,12.192 11.413,24.693 13.747,37.621c4.831,0.035 9.658,0.083 14.489,0.15Zm-438.045,-35.571c3.449,-2.709 7.013,-5.254 10.696,-7.607c1.398,-0.886 2.803,-1.757 4.218,-2.618c-14.587,-3.902 -29.698,-5.629 -44.797,-4.735c7.862,4.346 15.854,8.474 23.951,12.407c1.978,0.873 3.954,1.724 5.932,2.553Zm-122.56,-107.452c6.888,-2.47 13.893,-4.689 20.994,-6.709c3.291,-0.948 6.592,-1.847 9.896,-2.709c12.632,-21.667 14.973,-48.872 9.212,-73.048c-1.657,-1.738 -3.608,-3.212 -5.657,-4.418c-34.356,11.127 -46.286,55.101 -34.445,86.883Zm-205.31,-168.931c13.603,-14.808 28.562,-27.544 46.083,-38.199c1.125,-0.686 2.274,-1.369 3.445,-2.049c13.314,-40.554 23.011,-79.266 30.589,-120.957c-20.967,-0.684 -39.337,11.769 -45.314,31.857c-15.054,41.427 -38.082,84.499 -34.802,129.348Zm172.987,-194.842c15.008,24.039 20.016,52.192 20.963,80.178c4.523,-2.695 9.289,-5.015 14.406,-7.113c8.628,-3.493 21.725,-6.305 31.384,-4.268c-11.586,-46.559 -35.569,-109.378 -87.636,-120.495c0.465,1.486 0.921,2.974 1.359,4.466c2.24,7.657 3.116,16.009 3.253,24.291c6.34,7.128 11.776,15.071 16.271,22.941Z" style="fill:#abcf10;fill-rule:nonzero;"></path><path d="M6267.519,4693.018c-10.438,-17.121 -5.406,-36.194 -2.778,-54.666c5.275,-42.321 11.269,-84.686 14.944,-127.206c15.498,-191.538 19.798,-375.292 47.382,-563.491c21.874,-181.253 36.907,-363.46 68.634,-543.442c20.002,-121.412 48.818,-241.333 62.025,-363.744c18.776,-172.962 15.615,-347.024 16.671,-520.764c0.911,-96.804 2.028,-194.294 -12.688,-290.157c-15.533,-100.724 -36.865,-189.986 -48.738,-289.403c-13.272,-89.709 -27.72,-170.567 -45.506,-257.265c-21.85,-104.649 -43.284,-213.005 -104.132,-303.067c-194.614,-280.018 -561.486,-375.156 -885.355,-391.011c-163.973,8.699 -328.882,11.882 -491.252,38.528c-69.055,6.599 -136.868,21.934 -198.92,53.836c-132.643,59.011 -233.493,167.266 -338.317,264.48c-145.563,157.166 -264.036,345.073 -353.879,538.708c-100.153,214.523 -145.586,448.217 -189.929,679.37c-40.296,215.513 -18.057,435.892 11.967,651.26c26.705,281.917 -13.985,566.203 -56.177,844.785c-20.44,132.731 -35.544,266.131 -53.463,399.189c-8.599,57.944 -16.169,117.427 -12.993,175.19c-4.581,19.598 -21.776,38.522 -43.486,34.172c-54.439,-14.983 -16.971,-140.136 -17.034,-182.328c26.794,-224.843 61.89,-448.551 92.959,-672.75c18.143,-168.687 33.843,-338.575 27.292,-508.386c-13.018,-141.447 -37.847,-281.8 -40.356,-424.181c-6.409,-140.613 11.15,-280.589 40.095,-418.039c29.943,-137.275 54.776,-276.573 100.249,-409.777c53.242,-155.376 121.287,-306.739 208.987,-445.891c103.379,-163.706 219.208,-317.817 369.375,-441.694c68.703,-62.815 142.079,-121.641 227.528,-160.096c65.358,-32.993 135.782,-54.209 208.754,-60.9c164.907,-27.23 331.964,-31.509 498.617,-40.635c380.38,9.994 841.227,143.539 1005.711,520.918c89.626,261.514 110.418,544.871 161.964,815.127c15.763,145.061 6.78,291.087 8.405,436.659c4.016,234.808 -23.038,467.788 -73.017,697.016c-34.418,187.003 -50.546,376.469 -72.953,565.207c-16.242,125.286 -29.933,252.236 -34.966,378.035c-5.965,108.607 -13.716,217.132 -28.864,324.901c-2.93,21.102 -4.506,42.878 -21.252,58.046c-14.406,13.262 -35.062,10.536 -45.506,-6.532Z" style="fill-rule:nonzero;"></path><path d="M3897.275,4732.971c-71.458,-0.636 -141.891,-11.415 -212.057,-23.808c-40.404,-6.371 -106.039,-14.629 -85.833,-71.785c6.232,-17.195 26.959,-36.794 46.633,-26.504c99.211,27.913 204.552,38.017 307.687,35.669c73.77,-4.045 146.73,-15.811 220.21,-22.53c107.437,-12.111 214.827,4.091 322.07,9.764c178.939,7.882 358.189,-4.27 537.308,-3.576c187.307,-5.975 373.737,-31.702 561.14,-30.823c129.792,2.334 258.88,21.778 388.931,14.775c114.874,-7.151 230.131,-7.841 344.942,-9.741c37.82,4.608 37.878,60.812 9.764,78.774c-31.461,14.773 -69.384,5.688 -103.177,8.034c-113.402,-0.832 -226.59,10.017 -339.942,9.908c-117.867,-0.3 -234.793,-19.166 -352.708,-16.219c-207.764,6.444 -414.554,33.476 -622.663,32.217c-124.205,-0.111 -248.257,6.817 -372.457,5.029c-106.575,-1.705 -217.841,-20.217 -323.496,-16.294c-109.144,5.137 -216.88,28.141 -326.351,27.109Z" style="fill-rule:nonzero;"></path><path d="M3453.993,4562.648c-11.899,-2.789 -19.179,-11.748 -22.649,-22.422c-32.99,-66.769 -59.507,-137.099 -73.546,-210.513c-29.9,-199.454 -17.082,-403.285 4.656,-602.989c18.606,-145.495 7.318,-294.001 15.848,-439.664c9.812,-196.707 32.636,-392.049 49.862,-588.12c6.038,-99.097 2.636,-198.827 18.616,-297.141c47.13,-268.094 130.67,-530.48 237.298,-780.429c105.916,-190.01 244.774,-365.513 431.779,-480.814c115.566,-81.502 225.004,-176.007 358.412,-227.607c218.334,-78.219 453.907,-71.15 682.736,-73.288c203.914,1.569 436.058,-80.935 612.982,58.64c74.161,64.572 142.733,135.117 228.276,185.634c47.007,31.613 95.741,62.627 135.096,103.848c76.523,88.863 138.196,193.649 199.066,292.408c-96.71,-73.471 -176.974,-164.984 -267.25,-245.214c-80.741,-64.403 -174.033,-112.402 -250.066,-182.799c-176.132,-206.4 -364.511,-144.925 -600.807,-128.19c-245.752,6.136 -499.945,-12.345 -734.715,73.884c-133.248,56.181 -240.529,154.175 -359.448,233.622c-157.875,100.33 -273.213,251.654 -366.964,411.046c-43.707,73.221 -62.096,157.458 -92.975,236.321c-64.516,168.425 -109.511,343.223 -143.058,520.259c-21.034,132.523 -10.731,267.325 -28.08,400.444c-16.388,162.958 -32.774,328.19 -41.194,491.258c-5.975,103.471 -0.267,206.749 -5.588,310.199c-4.956,96.943 -18.07,193.178 -25.458,289.93c-7.636,136.958 -11.632,278.432 9.664,413.259c11.371,60.089 33.634,117.293 58.93,172.72c24.104,29.112 14.318,91.41 -31.421,85.72Z" style="fill-rule:nonzero;"></path><path d="M6443.888,2604.784c-91.821,-36.129 -193.343,10.337 -288.728,-8.622c-206.744,-21.898 -414.304,-18.779 -621.613,-27.947c-137.064,-0.734 -271.156,-30.264 -407.074,-41.971c-207.995,-8.11 -416.569,-0.559 -623.939,-21.106c-106.858,-2.316 -213.243,-8.858 -319.817,-17.049c-122.964,3.668 -246.911,12.318 -368.854,28.057c-9.131,2.216 -18.072,4.769 -26.905,7.937c-6.99,7.957 -15.992,13.351 -27.757,13.353c-32.511,-2.918 -36.063,-48.059 -19.752,-70.137c13.441,-20.502 37.772,-27.559 60.224,-33.341c40.475,-10.438 82.527,-12.24 124.052,-15.019c93.327,-4.7 186.384,-19.264 279.943,-15.998c140.061,13.866 280.835,11.674 420.892,25.239c241.538,15.948 485.76,-6.749 724.915,40.01c182.578,22.553 366.638,16.778 549.998,23.595c117.5,5.198 234.733,20.994 352.205,22.059c68.524,-1.134 211.561,-35.364 242.897,37.407c8.56,29.387 -19.264,65.954 -50.685,53.534Z" style="fill-rule:nonzero;"></path><path d="M3749.546,2525.615c-74.026,-35.825 -120.072,-107.027 -184.556,-155.67c-64.066,-10.085 -33.962,-124.732 27.776,-83.719c21.776,-0.609 38.805,15.883 55.333,27.93c50.356,43.476 97.354,91.443 142.746,139.973c23.42,26.761 -3.672,86.631 -41.3,71.487Z" style="fill-rule:nonzero;"></path><path d="M3560.559,4622.85c-46.479,-18.114 -82.288,-58.313 -129.438,-76.906c-54.214,4.137 -48.174,-91.51 2.538,-90.483c34.247,8.149 64.712,30.016 94.836,47.913c33.799,23.022 75.599,45.883 80.577,90.937c0.9,5.93 1.501,12.465 0.452,18.472c-5.832,14.575 -35.762,13.143 -48.964,10.067Z" style="fill-rule:nonzero;"></path><path d="M6435.256,4759.269c-45.1,-39.806 13.943,-212.918 25.085,-269.584c30.292,-114.447 67.84,-228.128 116.395,-336.186c55.062,-120.14 128.734,-230.15 201.023,-340.392c0.15,-0.227 0.375,0.075 0.302,0.3c-75.329,153.915 -150.246,302.633 -196.597,466.373c-35.173,133.235 -73.255,266.546 -91.154,403.456c20.437,33.391 -13.589,97.877 -55.052,76.031Z" style="fill-rule:nonzero;"></path><path d="M6489.655,4789.134c-71.537,-59.007 22.372,-226.142 48.668,-296.989c62.177,-138.146 145.049,-265.437 234.285,-387.476c19.062,-25.821 38.678,-54.697 57.899,-78.621c-75.21,146.703 -155.603,292.733 -217.217,444.962c-24.885,62.054 -48.286,124.807 -67.65,188.87c-12.234,45.602 -21.928,94.094 -55.868,129.309c-0.037,0 -0.075,-0.017 -0.119,-0.056Z" style="fill-rule:nonzero;"></path><path d="M6611.5,4797.022c-87.137,-38.937 -8.966,-183.131 23.808,-240.072c54.383,-96.658 134.284,-174.625 219.568,-244.051c27.676,-22.749 57.388,-47.309 86.129,-66.381c-24.479,26.582 -48.059,53.841 -71.717,81.098c-111.754,126.899 -224.858,277.483 -250.279,446.046c2.884,8.18 8.927,15.177 15.471,19.45c-7.682,4.22 -14.637,6.09 -22.98,3.908Z" style="fill-rule:nonzero;"></path><path d="M6761.907,4819.037c-54.084,-42.94 144.39,-167.941 178.8,-191.93c-52.423,61.785 -104.986,130.134 -166.787,183.664c0.759,1.201 2.222,2.203 2.486,3.537c-3.91,3.199 -9.218,7.576 -14.498,4.729Z" style="fill-rule:nonzero;"></path><path d="M6867.539,4925.72c-30.112,-23.476 -1.492,-68.238 18.999,-88.986c3.895,23.614 -4.483,46.929 -7.001,70.289c5.927,4.268 14.118,5.734 19.77,9.158c-7.657,5.559 -21.138,14.422 -31.767,9.539Z" style="fill-rule:nonzero;"></path><path d="M5478.613,4866.123c-0.135,-0.067 -0.088,-0.252 0.029,-0.344c-1.807,-107.223 64.61,-197.328 103.131,-293.428c33.778,-82.369 57.236,-168.969 75.412,-255.977c4.96,109.405 -6.79,225.377 -45.506,329.732c-32.273,77.928 -53.616,177.132 -133.066,220.018Z" style="fill-rule:nonzero;"></path><path d="M4044.122,4983.179c-27.822,-11.967 -36.973,-42.069 -43.328,-69.234c-8.86,-34.243 -16.296,-68.861 -23.507,-103.552c-34.716,-177.653 -70.956,-358.45 -103.85,-534.88c76.639,175.43 138.185,356.482 179.773,543.064c6.594,38.107 22.142,74.872 25.379,113.163c0.233,16.949 -3.514,32.811 -7.511,49.035c-6.426,6.736 -19.177,6.177 -26.957,2.403Z" style="fill-rule:nonzero;"></path><path d="M4199.106,4856.276c-121.916,-162.101 -108.017,-379.006 -87.782,-569.948c15.779,113.871 24.404,233.757 59.703,345.113c19.448,70.664 63.411,129.386 95.812,193.295c14.2,39.503 -45.041,63.645 -67.732,31.54Z" style="fill-rule:nonzero;"></path><path d="M3449.497,4690.254c-67.621,-27.918 -93.715,-102.358 -121.124,-164.302c-37.984,-89.776 -73.997,-180.365 -110.612,-270.629c-71.696,-197.074 -177.424,-374.16 -284.747,-552.454c99.08,116.981 199.112,240.014 273.109,376.436c106.785,197.159 187.726,409.227 273.411,614.029c-9.035,1.696 -20.754,0.26 -30.037,-3.08Z" style="fill-rule:nonzero;"></path><path d="M3306.789,4689.374c-9.912,-22.001 -0.752,-48.96 4.054,-71.112c13.583,-61.544 27.713,-122.948 38.562,-185.063c37.542,-213.726 15.544,-430.852 4.992,-645.906c23.111,110.318 44.303,225.506 58.121,338.665c14.118,118.721 11.715,239.77 -6.007,357.889c-8.462,59.803 -22.889,118.344 -33.676,177.618c4.093,37.899 -45.587,71.652 -66.046,27.909Z" style="fill-rule:nonzero;"></path><path d="M3084.526,4640.515c-50.175,-8.935 -100.595,-156.968 -119.39,-203.956c50.416,58.941 104.049,123.408 144.4,190.359c-0.546,11.075 -15.625,14.389 -25.01,13.597Z" style="fill-rule:nonzero;"></path><path d="M3300.645,3951.387c2.253,-20.575 17.345,-41.225 39.574,-41.225c22.151,0 32.065,25.906 29.962,44.38c-2.253,20.575 -17.347,41.225 -39.574,41.225c-22.153,0 -32.065,-25.908 -29.962,-44.38Z" style="fill-rule:nonzero;"></path><path d="M3229.839,3968.344c6.338,-53.976 74.09,-55.541 69.535,3.151c-6.338,53.976 -74.09,55.541 -69.535,-3.151Z" style="fill-rule:nonzero;"></path><path d="M3262.686,4016.197c-46.998,-9.823 -26.957,-94.959 19.748,-84.257c44.405,11.869 24.908,92.49 -19.748,84.257Z" style="fill-rule:nonzero;"></path><path d="M3251.93,3975.916c6.338,-53.976 74.09,-55.541 69.535,3.151c-6.338,53.976 -74.09,55.541 -69.535,-3.151Z" style="fill-rule:nonzero;"></path><path d="M3287.577,3810.109c-8.11,-22.528 -14.793,-45.806 -18.624,-69.535c-3.829,-23.278 -4.279,-47.157 -3.754,-70.737c0.05,-0.002 0.096,-0.004 0.146,-0.006c0.686,-3.249 -0.905,-7.972 0.004,-10.431c2.718,4.694 2.695,4.514 3.897,7.103c20.471,44.41 25.233,95.703 18.457,143.754c-0.052,0 -0.096,-0.04 -0.125,-0.148Z" style="fill-rule:nonzero;"></path><path d="M3263.401,4926.283c-80.747,-298.159 -157.943,-609.027 -325.14,-873.323c-22.851,-39.681 -47.746,-80.47 -68.859,-119.922c105.816,99.021 207.751,206.974 266.731,341.216c78.561,189.471 140.269,390.569 182.237,590.777c78.855,33.664 -9.443,123.848 -54.97,61.252Z" style="fill-rule:nonzero;"></path><path d="M6626.915,4787.17c-122.254,-92.923 87.955,-507.692 154.396,-615.004c0.15,-0.225 0.375,0 0.3,0.225c-50.589,142.708 -89.861,288.438 -123.6,435.46c-9.225,40.923 -19.731,81.7 -27.259,122.85c-3.497,20.137 -5.227,42.573 6.607,60.299c-2.149,1.521 -8.097,-2.724 -10.444,-3.829Z" style="fill-rule:nonzero;"></path><path d="M6814.495,4632.839c-60.212,-60.806 118.479,-277.992 159.725,-336.785c-13.032,34.474 -29.204,70.781 -43.628,105.805c-25.646,61.352 -54.866,118.261 -77.194,179.771c-5.29,15.511 -13.332,29.775 -19.116,45.037c-0.706,2.87 1.588,5.292 2.145,7.676c-7.303,5.269 -15.108,4.568 -21.932,-1.503Z" style="fill-rule:nonzero;"></path><path d="M3728.006,5073.459c-65.818,-45.064 -26.584,-289.676 -46.1,-375.763c-2.77,-27.161 -8.135,-55.666 -11.721,-81.698c68.624,116.998 69.933,254.46 97.588,383.466c33.159,25.637 2.397,97.039 -39.768,73.995Z" style="fill-rule:nonzero;"></path><path d="M2967.57,5046.259c0.531,-13.681 -2.218,-27.192 -6.411,-40.137c-36.657,-95.155 -91.746,-182.041 -131.308,-276c-28.856,-65.748 -54.887,-132.725 -80.272,-199.821c54.485,75.566 108.719,160.813 161.076,238.416c51.702,83.232 125.751,165.655 127.125,268.378c1.125,51.379 -66.287,69.311 -70.21,9.164Z" style="fill-rule:nonzero;"></path><path d="M6273.332,4770.011c-80.114,-123.6 143.429,-698.196 192.47,-858.526c0.075,-0.302 0.375,-0.15 0.375,0.075c-60.004,290.599 -143.86,581.609 -169.408,876.323c-8.989,2.307 -18.841,-11.409 -23.437,-17.872Z" style="fill-rule:nonzero;"></path><path d="M6728.089,4739.057c-6.032,-14.347 -2.501,-29.673 3.602,-43.328c23.63,-55.729 54.416,-108.252 87.934,-158.594c-10.588,42.436 -24.081,87.05 -38.445,129.384c-11.463,26.388 -14.96,58.134 -36.313,78.834c-4.358,7.805 -15.048,-1.219 -16.778,-6.296Z" style="fill-rule:nonzero;"></path></g></svg>