<svg width="100%" height="100%" viewBox="0 0 4208 4021" version="1.1" xmlns="http://www.w3.org/2000/svg" xmlns:xlink="http://www.w3.org/1999/xlink" xml:space="preserve" style="fill-rule:evenodd;clip-rule:evenodd;stroke-linejoin:round;stroke-miterlimit:2;"><g><path d="M3330.916,1645.835c14.473,-16.813 30.93,-31.711 48.595,-45.261c-5.959,32.634 -26.604,65.692 -60.727,62.641c3.619,-5.534 7.166,-11.066 10.713,-15.678c0.071,-0.142 0.212,-0.283 0.283,-0.425c0.496,-0.567 0.923,-1.135 1.418,-1.702c-0.071,0.142 -0.212,0.283 -0.283,0.425Z" style="fill:#fb0050;fill-rule:nonzero;"></path><path d="M3562.257,1371.787c3.689,41.643 17.026,94.564 -16.245,127.481c-54.058,33.273 -115.422,61.933 -166.5,101.306c-17.665,13.548 -34.123,28.447 -48.595,45.259c0.071,-0.142 0.212,-0.283 0.283,-0.425c-0.496,0.568 -0.921,1.135 -1.418,1.704c-0.071,0.142 -0.212,0.283 -0.283,0.425c-3.547,4.611 -7.094,10.145 -10.711,15.678c-13.196,20.075 -28.164,41.358 -52.711,28.872c-16.316,-10.003 -18.871,-28.306 -20.998,-46.325c-0.923,-7.235 -1.704,-14.4 -3.334,-20.998c-11.494,-77.255 -13.764,-155.433 -28.093,-232.475c-22.985,-104.213 -26.604,-210.553 -30.647,-316.895c-12.769,-193.388 -38.592,-361.377 -135.285,-518.299c-19.865,-32.065 -42.566,-63.705 -68.814,-94.989c-73.14,-80.377 -141.6,-166.927 -224.174,-237.867c-31.357,-24.405 -70.73,-30.08 -109.11,-33.556c-35.399,-5.461 -70.941,-7.875 -106.411,-2.908c-20.502,0.425 -32.704,-22.276 -32.634,-40.296c-36.322,-13.904 -88.322,-19.509 -99.39,-63.564c-5.888,-16.174 3.476,-33.342 19.865,-38.307c19.154,-8.089 38.38,2.553 56.043,9.364c83.924,31.782 175.083,39.444 258.653,72.715c77.468,26.106 147.629,69.381 212.682,117.195c81.3,50.084 157.774,108.754 222.616,179.198c40.862,46.963 73.494,100.381 112.655,148.622c94.069,98.538 147.487,227.013 174.019,359.461c34.833,145.996 71.863,291.853 98.538,439.624Z" style="fill:#7d002a;fill-rule:nonzero;"></path><path d="M3241.744,1624.764c1.631,6.598 2.412,13.762 3.334,21c-63.493,-13.764 -127.552,-21 -193.102,-12.344c-109.249,-1.916 -218.501,-2.128 -327.679,-6.456c-132.873,-5.463 -263.335,-30.859 -394.363,-51.078c-125.992,-11.351 -252.694,-15.252 -379.182,-17.38c-82.86,-1.42 -163.593,-20.929 -245.53,-30.861c-84.349,-6.81 -167.704,14.118 -249.997,29.938c-124.503,32.207 -250.566,58.242 -380.034,51.078c-58.172,-0.639 -116.272,-3.476 -174.231,-7.733c-37.032,0.354 -52.425,-51.007 -24.759,-73.779c-20.856,-158.413 -44.907,-325.124 11.917,-478.784c99.602,-300.365 276.743,-575.194 500.919,-797.737c181.112,-139.398 465.872,-139.825 685.649,-127.835c89.031,10.003 177.424,25.326 263.405,50.722c84.136,24.688 171.749,33.627 257.162,52.213c160.683,33.202 257.305,181.043 387.271,268.868c23.41,18.871 45.188,39.869 65.194,62.499c96.693,156.924 122.516,324.913 135.285,518.299c4.044,106.342 7.662,212.682 30.647,316.895c14.331,77.043 16.601,155.22 28.093,232.475Z" style="fill:#fb0050;fill-rule:nonzero;"></path><path d="M830.387,1552.097c-104.829,-185.849 -0.169,-396.13 42.911,-585.342c67.428,-187.373 123.655,-490.404 296.4,-603.919c21.495,-13.337 44.055,-24.971 67.465,-34.619c-8.719,18.377 -20.446,37.09 -29.722,52.923c-52.987,85.818 -113.419,167.459 -153.668,260.534c-46.127,111.663 -77.034,228.743 -116.23,342.903c-32.37,153.244 -112.168,307.539 -78.052,466.792c7.669,20.978 24.857,37.43 27.51,60.681c17.273,38.634 -29.535,85.411 -56.613,40.045Z" style="fill:#fb0050;fill-rule:nonzero;"></path><path d="M927.583,954.943c-56.072,-43.071 29.192,-204.322 49.665,-260.08c-9.215,9.344 -18.286,20.802 -27.027,29.239c25.605,-71.404 63.789,-137.604 100.167,-203.532c16.955,-46.254 41.216,-89.67 68.741,-130.391c43.385,-65.69 109.547,-109.422 171.395,-156.001c60.496,-44.578 122.216,-89.953 192.677,-117.48c54.665,-21.01 114.485,-36.569 173.311,-31.569c34.958,7.749 36.605,63.64 7.377,79.812c-26.662,10.831 -55.16,17.954 -82.362,27.67c-30.974,5.95 -70.557,39.073 -97.864,10.174c-2.067,0.906 -4.128,1.832 -6.187,2.768c-15.862,7.695 -31.439,15.951 -46.498,25.091c7.709,51.387 -83.412,113.455 -119.877,144c-83.168,83.277 -167.154,167.848 -229.481,268.373c-32.323,85.713 -52.999,176.231 -90.683,260.211c-9.903,25.961 -28.266,76.741 -63.353,51.715Z" style="fill:#fb0050;fill-rule:nonzero;"></path><path d="M931.431,784.293c9.682,-134.713 60.227,-261.154 141.799,-368.407c93.322,-109.727 178.861,-238.216 297.532,-321.29c47.217,-19.325 59.699,52.923 29.443,77.896c-82.791,88.094 -173.846,168.264 -250.751,261.847c-89.232,105.772 -131.715,243.428 -218.023,349.954Z" style="fill:#fb0050;fill-rule:nonzero;"></path><path d="M870.437,1033.716c-4.399,-76.972 -4.186,-156.71 16.316,-231.624c10.784,-39.515 25.113,-77.894 39.586,-116.201c14.048,-37.386 29.158,-74.277 47.885,-109.534c4.967,-9.293 10.359,-20.006 17.524,-27.808c7.235,-7.804 15.749,-12.132 26.036,-13.977c13.194,-2.341 25.184,7.023 28.235,19.509c2.056,8.231 2.483,16.318 1.489,24.759c-1.326,11.118 -6.029,20.776 -10.926,29.016c-9.916,16.688 -18.579,34.103 -26.626,51.733c-29.067,66.907 -50.805,136.64 -76.877,204.791c-9.861,25.894 -18.728,52.284 -27.737,78.532c-10.572,30.647 -22.347,60.939 -34.62,90.947c-0.024,0.074 -0.065,0.105 -0.111,0.105c-0.082,0 -0.173,-0.109 -0.173,-0.247Z" style="fill:#fb0050;fill-rule:nonzero;"></path><path d="M797.833,1395.225c-4.366,-97.087 2.957,-194.519 21.497,-289.866c1.337,-25.275 27.414,-63.344 53.629,-38.521c23.27,25.306 8.478,60.919 2.341,90.024c-21.826,82.09 -47.945,159.563 -77.248,238.594c-0.085,0 -0.178,-0.104 -0.22,-0.231Z" style="fill:#fb0050;fill-rule:nonzero;"></path><path d="M1964.175,1610.584c-131.317,0.894 -261.277,-22.314 -391.455,-29.868c-32.75,-2.428 -65.465,-5.466 -98.182,-8.441c-32.459,-4.217 -84.102,-3.334 -88.321,-45.757c-6.807,-38.098 39.553,-64.942 67.904,-38.628c129.118,13.686 257.376,21.167 386.25,35.995c82.397,-10.542 168.507,-26.145 250.716,-8.788c31.607,4.804 47.022,41.808 31.996,69.023c-11.066,21.499 -36.484,23.613 -57.959,24.617c-33.616,2.047 -67.296,1.843 -100.95,1.847Z" style="fill:#fb0050;fill-rule:nonzero;"></path><path d="M2792.62,341.05c-115.386,-46.176 -236.527,-68.565 -357.291,-95.304c-71.941,-10.695 -143.962,-20.551 -215.985,-30.55c-25.578,-6.685 -63.402,1.729 -76.374,-27.004c-107.184,-12.537 -215.459,-13.982 -323.239,-14.498c-43.941,-3.979 -134.499,21.595 -121.78,-51.904c-54.329,11.287 -114.834,20.88 -157.372,59.21c-38.214,35.405 -72.947,-32.846 -42.853,-61.657c88.366,-80.299 221.107,-84.745 334.562,-92.572c107.555,-3.224 214.576,9.22 321.294,20.929c115.657,13.826 232.853,19.574 345.629,50.37c59.81,17.36 261.902,-3.879 226.602,102.286c22.008,7.284 48.63,7.813 65.249,25.62c21.425,20.36 11.705,70.942 -21.425,71.721c-10.123,0.211 -20.093,-0.908 -30.035,-2.475c17.8,14.625 37.582,29.78 53.017,45.827Z" style="fill:#fb0050;fill-rule:nonzero;"></path><path d="M712.498,3808.293c-61.284,-7.522 -132.096,-2.435 -182.033,-43.919c-95.029,-14.166 -211.322,-124.686 -117.783,-211.99c-74.188,-109.019 -28.545,-251.214 47.689,-346.674c47.522,-60.447 112.324,-128.972 194.379,-130.1c35.89,2.054 56.962,33.302 81.714,54.37c23.444,-22.104 52.16,-19.723 60.952,14.015c19.501,60.692 -21.25,117.905 -47.725,170.21c37.791,48.728 50.716,111.803 55.039,172.112c1.702,0.38 3.403,0.77 5.101,1.175c33.972,8.163 69.856,24.543 95.467,49.943c41.841,6.276 88.431,17.525 117.255,50.747c42.288,1.595 72.51,-31.35 108.926,-48.477c31.428,-17.38 64.486,-31.923 98.255,-44.051c35.018,-14.24 72.314,-14.856 109.18,-9.936c47.956,6.611 32.267,78.17 11.256,104.947c33.266,5.988 63.54,21.121 94.232,34.597c19.846,8.203 25.411,30.966 21.991,50.153c-1.96,20.397 -6.745,41.857 -24.261,54.556c-17.878,14.897 -44.126,16.033 -66.117,18.088c-45.958,6.801 -92.075,13.149 -138.265,18.234c-174.273,21.094 -349.216,48.504 -525.251,41.999Zm409.829,-117.553c-13.394,4.362 -26.811,8.663 -40.254,12.898c85.547,-11.109 171.376,-20.144 256.769,-32.414c-40.655,-8.165 -82.326,-10.225 -123.669,-11.102c-30.599,11.193 -61.913,20.502 -92.846,30.618Zm-552.885,-3.454c8.094,-4.161 16.18,-8.349 24.37,-12.366c1.024,-0.509 2.054,-1.008 3.082,-1.502c-1.208,-0.499 -2.415,-1.001 -3.625,-1.502c-6.315,3.607 -12.526,7.39 -18.582,11.385c-1.791,1.295 -3.531,2.621 -5.245,3.985Zm-69.27,-16.984c2.468,-13.1 8.207,-24.303 16.016,-34.079c-17.854,-12.744 -41.048,-8.775 -58.742,-23.426c-2.205,1.852 -4.37,3.758 -6.507,5.712c-1.867,1.892 -3.692,3.845 -5.43,5.857c10.517,22.587 31.991,37.203 54.663,45.936Zm293.34,-50.006c-0.336,0.972 -0.683,1.936 -1.032,2.895c13.848,-2.604 27.699,-5.18 41.556,-7.691c-13.178,0.149 -26.348,0.736 -39.52,1.747c-0.323,1.021 -0.654,2.038 -1.004,3.049Zm-162.933,-52.213c7.811,-2.593 15.711,-4.938 23.642,-7.134c-0.389,-1.173 -0.786,-2.341 -1.182,-3.514c-4.593,0.196 -9.179,0.441 -13.77,0.741c-2.82,3.345 -5.715,6.656 -8.69,9.907Zm-133.821,-65.282c12.733,-4.115 25.765,-7.393 38.741,-10.414c15.646,-3.674 31.406,-6.841 47.264,-9.422c1.515,-1.315 3.018,-2.646 4.509,-3.995c4.42,-4.311 8.745,-8.695 12.949,-13.183c-1.338,0.191 -2.655,0.396 -3.925,0.637c-22.89,4.38 -38.36,-20.656 -37.693,-41.271c-20.377,1.23 -37.226,-4.437 -35.341,-28.17c-19.674,30.418 -58.291,71.26 -26.504,105.817Zm223.615,-26.659c5.957,0.309 11.912,0.667 17.858,1.095c-2.828,-26.094 -8.434,-52.177 -17.894,-76.725c-0.291,1.142 -0.583,2.277 -0.886,3.412c-6.329,23.765 -15.246,46.766 -25.411,69.112c0.298,0.734 0.59,1.473 0.883,2.208c8.468,0.163 16.95,0.467 25.451,0.897Zm-182.102,-250.444c17.073,-13.145 36.333,-24.274 56.252,-31.547c10.731,-3.917 21.579,-5.396 32.298,-4.656c5.105,-11.294 10.797,-22.153 17.633,-32.463c-41.852,9.164 -77.849,37.492 -106.182,68.667Z" style="fill:#abcf10;fill-rule:nonzero;"></path><path d="M2766.147,4000.099c-45.168,-3.087 -58.508,-82.282 -13.196,-94.706c140.848,-23.103 282.527,-40.543 422.067,-71.142c-87.416,-60.976 -74.311,-171.774 9.613,-228.725c106.598,-68.358 243.245,-61.755 358.86,-21.105c-55.698,-59.922 -65.65,-154.912 -28.202,-226.767c19.352,-36.956 59.485,-76.066 104.462,-68.296c2.237,-32.04 -14.732,-80.835 21.813,-98.2c17.594,-6.598 32.775,6.384 39.09,21.92c12.224,30.69 6.827,64.753 8.69,96.993c22.403,-42.876 56.19,-76.863 94.103,-105.931c11.636,-10.003 29.441,-8.016 39.297,3.407c57.777,45.969 18.31,116.872 -1.99,171.954c11.857,51.873 -14.739,101.751 -14.454,152.734c17.104,5.41 36.963,2.846 49.155,18.878c26.982,34.686 33.961,79.636 39.762,122.078c55.228,-6.66 118.263,18.951 119.574,81.952c-2.252,51.018 -51.957,82.981 -93.375,103.649c-6.534,49.011 -61.49,70.367 -87.171,108.606c-29.72,30.176 -63.455,-13.274 -52.553,-44.936c-67.543,18.837 -149.723,60.745 -215.248,17.683c-52.883,25.395 -137.443,36.867 -170.483,-23.633c-204.408,57.402 -419.031,72.546 -629.813,83.588Zm919.935,-132.592c11.401,-2.875 22.729,-6.048 33.987,-9.173c-0.205,0.056 -0.407,0.113 -0.61,0.167c32.735,-9.584 64.848,-21.644 96.201,-35.265c-1.117,-0.105 -2.23,-0.218 -3.338,-0.347c-3.541,-0.409 -6.997,-1.335 -10.35,-2.659c-38.251,15.562 -82.088,23.502 -115.889,47.277Zm-378.04,-77.293c35.55,-64.926 106.226,-101.745 165.903,-142.048c-85.962,-21.94 -183.19,-18.157 -259.782,30.196c-90.732,66.197 30.485,112.279 93.88,111.852Zm616.65,-25.071c-0.118,0.812 -0.238,1.624 -0.36,2.435c5.111,-3 9.923,-6.533 14.224,-10.611c-3.1,-0.694 -6.206,-1.246 -9.349,-1.625c-1.42,-0.105 -2.844,-0.196 -4.27,-0.281c0.298,3.411 0.227,6.812 -0.245,10.083Zm-459.539,-5.781c39.297,-13.506 79.071,-30.002 108.492,-60.304c-0.354,-0.665 -0.71,-1.328 -1.075,-1.987c-0.89,-1.418 -1.803,-2.824 -2.75,-4.21c-31.397,16.485 -61.471,35.868 -90.556,55.94c-4.778,3.447 -9.487,6.954 -14.111,10.561Zm342.787,-78.21c7.206,-1.101 14.425,-2.138 21.633,-3.126c-2.504,-21.065 -6.663,-41.936 -15.137,-61.477c-2.602,-0.318 -5.194,-0.708 -7.778,-1.168c0.338,21.902 0.456,43.852 1.282,65.77Zm-90.524,-6.26c1.97,-1.5 3.917,-3.033 5.837,-4.606c-0.703,-0.256 -1.4,-0.512 -2.09,-0.774c-0.59,-0.14 -1.179,-0.274 -1.765,-0.405c-0.632,1.932 -1.293,3.859 -1.981,5.784Zm-125.952,-146.848c8.924,-29.766 21.285,-58.295 32.888,-87.068c0.16,-22.224 -0.461,-44.442 -1.175,-66.667c-13.911,-9.084 -28.213,-1.705 -38.541,9.037c-39.308,38.734 -32.557,108.392 6.829,144.698Zm140.196,-128.179c1.747,1.186 3.538,2.321 5.338,3.451c13.003,-29.869 26.23,-59.762 36.465,-90.727c-1.353,1.526 -2.691,3.069 -4.014,4.637c-8.327,10.873 -15.907,22.126 -23.104,33.761c0.921,-1.56 1.843,-3.049 2.695,-4.611c-9.771,16.345 -19.027,32.928 -27.846,49.73c3.703,0.389 7.295,1.593 10.466,3.759Z" style="fill:#abcf10;fill-rule:nonzero;"></path><path d="M2471.755,3783.287c-18.303,-3.476 -27.881,-23.341 -27.881,-40.437c0,-16.458 9.507,-37.811 27.881,-40.435c36.184,-6.247 72.824,-8.298 109.533,-8.443c57.752,-1.418 115.533,2.089 173.249,2.156c27.652,-4.524 54.369,0.538 55.927,33.876c19.47,11.652 40.109,27.785 51.966,46.262c-31.689,-3.28 -63.533,-1.527 -95.204,-0.276c-98.329,-0.242 -197.706,15.582 -295.471,7.299Z" style="fill:#abcf10;fill-rule:nonzero;"></path><path d="M1774.038,3722.513c-17.518,-17.656 2.67,-40.871 24.259,-35.543c7.52,1.729 16.303,5.899 21.85,10.926c-4.33,4.844 -9.073,8.572 -14.106,12.066c4.735,5.599 9.801,12.186 12.121,18.935c-14.85,5.161 -32.083,5.31 -44.124,-6.384Z" style="fill:#abcf10;fill-rule:nonzero;"></path><path d="M3232.867,3671.886c-21.354,-0.993 -29.795,-23.695 -28.377,-41.927c3.901,-49.233 9.791,-98.182 14.333,-147.273c19.558,-199.379 16.719,-396.073 31.468,-592.766c11.574,-189.072 5.98,-378.11 -11.676,-566.56c-8.839,-169.208 1.604,-340.859 -11.494,-509.431c-19.327,-201.774 8.737,-394.75 -6.318,-594.317c-4.787,-92.42 -31.773,-181.465 -49.581,-271.878c-20.075,-79.574 -34.199,-161.579 -66.424,-237.421c-57.759,-118.664 -161.473,-215.242 -245.295,-311.594c-32.523,-36.344 -66.827,-71.033 -105.09,-101.315c-235.256,-171.685 -385.057,-208.734 -671.859,-204.014c-116.418,-9.199 -232.544,-8.131 -348.962,-1.567c-61.328,2.724 -123.604,-3.144 -184.202,9.013c-132.802,34.292 -247.315,116.481 -357.85,194.701c-84.015,64.136 -125.6,165.205 -178.363,253.787c-147.716,282.128 -201.629,608.025 -194.234,923.624c7.159,87.097 27.795,172.984 27.029,260.745c1.667,186.094 5.032,372.17 8.372,558.239c-1.269,221.671 -29.612,435.964 -12.139,656.422c21.147,158.497 5.911,315.916 -16.381,473.25c-5.828,41.469 -14.084,82.651 -24.526,123.201c-0.334,14.79 -5.98,29.888 -18.817,38.185c-19.245,14.157 -46.065,-1.128 -46.966,-24.753c-2.459,-29.018 11.534,-58.954 15.884,-87.102c17.912,-112.978 33.456,-227.152 35.556,-341.598c-2.29,-122.08 -23.11,-243.566 -16.178,-365.986c3.044,-152.798 14.191,-303.676 17.309,-453.813c-2.392,-181.657 -8.136,-363.276 -8.162,-544.972c1.887,-94.43 -19.979,-186.701 -27.242,-280.361c-4.479,-136.758 3.351,-275.241 26.255,-410.112c41.694,-279.592 144.231,-549.076 310.788,-778.232c79.327,-91.397 189.349,-149.687 292.425,-210.261c95.558,-58.377 206.115,-79.996 316.964,-73.999c69.974,-0.349 139.803,-6.402 209.774,-7.094c86.317,-0.844 172.255,9.776 258.58,9.507c108.786,-3.042 217.939,11.349 321.866,43.835c130.489,50.479 249.554,120.723 353.638,212.05c54.38,53.123 103.549,111.381 154.245,167.915c44.792,46.643 87.636,95.316 121.577,150.613c77.308,108.77 94.336,244.229 125.135,370.953c49.271,180.27 55.051,377.874 44.128,560.507c-9.979,189.606 19.656,376.378 11.716,564.624c-2.359,172.185 17.583,344.32 23.117,515.602c3.447,189.521 -14.687,373.474 -20.003,560.013c-1.175,112.328 -8.467,212.489 -18.019,321.931c-4.682,50.226 -10.713,100.381 -14.685,150.68c-1.397,18.74 -16.971,39.971 -37.315,38.946Z" style="fill-rule:nonzero;"></path><path d="M3462.998,3635.026c-9.364,-10.782 -9.72,-24.332 -9.151,-37.811c1.406,-31.733 3.465,-63.238 9.082,-94.494c16.665,-115.707 18.019,-236.3 15.47,-352.65c-17.411,-197.516 -23.588,-395.182 -16.677,-593.284c0.496,-93.856 -0.354,-187.71 0.499,-281.566c-0.489,-152.592 20.556,-303.67 34.976,-455.224c5.708,-195.046 8.036,-391.753 -15.756,-585.771c-22.289,-155.106 -80.135,-301.258 -142.092,-444.166c-62.668,-151.948 -109.455,-324.614 -243.813,-430.643c-117.309,-96.379 -271.364,-110.526 -414.454,-140.435c-141.402,-29.782 -274.286,-92.774 -418.611,-109.318c-158.193,-18.913 -317.736,-28.384 -477.015,-28.711c-62.24,-2.755 -321.303,60.892 -287.393,-50.319c5.321,-14.614 21.779,-32.067 39.233,-26.393c37.028,19.425 77.802,8.837 117.405,6.881c45.172,-1.936 90.149,-8.559 135.214,-10.926c110.697,-1.553 221.517,6.396 331.934,13.268c88.021,7.994 176.935,14.641 262.98,35.685c88.457,21.8 173.692,54.449 261.845,77.538c92.418,25.74 188.555,35.278 281.207,59.595c184.129,48.831 318.295,181.857 388.626,356.404c88.391,226.393 203.207,447.805 233.046,691.751c21.446,201.487 21.699,405.684 11.707,607.898c-29.984,227.612 -37.048,456.419 -33.06,685.791c-6.879,198.789 -1.751,399.829 15.464,597.468c4.718,134.618 2.575,270.581 -18.873,403.801c-8.182,34.286 4.651,74.907 -18.094,104.35c-10.889,13.45 -32.419,16.479 -43.699,1.28Z" style="fill-rule:nonzero;"></path><path d="M3234.318,3723c-9.763,-47.6 31.017,-57.372 66.467,-70.062c44.494,-17.044 87.77,-36.643 130.676,-57.421c44.287,-20.406 85.043,-48.243 129.611,-67.962c14.329,-6.385 29.653,-1.489 37.457,12.273c9.505,16.813 5.461,38.521 -6.313,53.066c-37.39,30.483 -85.241,46.581 -126.916,70.797c-37.67,20.36 -75.764,39.94 -114.5,58.242c-7.64,3.661 -16.374,5.165 -24.619,3.756c-14.12,5.432 -28.342,10.639 -37.88,14.122c-4.184,1.702 -8.512,3.334 -12.698,5.178c-0.013,-0.071 -0.025,-0.142 -0.04,-0.214c-17.108,10.501 -37.079,-3.968 -41.245,-21.775Z" style="fill-rule:nonzero;"></path><path d="M3040.571,3737.256c-109.456,-4.123 -217.3,-27.548 -326.969,-29.799c-112.742,-2.808 -225.954,-2.027 -337.539,-20.567c-339.845,-62.276 -685.113,-77.086 -1027.801,-116.058c-212.823,-33.304 -427.768,-1.82 -641.381,-18.31c-44.186,-5.31 -33.078,-82.556 9.081,-80.871c74.822,6.093 150.282,6.93 225.353,5.278c221.708,-17.656 441.863,17.011 661.912,39.275c199.208,13.962 398.16,32.138 595.979,60.369c110.061,14.932 218.815,38.946 329.877,44.765c86.973,5.092 174.22,1.76 261.135,9.148c139.168,11.34 279.881,43.835 419.085,15.373c8.044,-14.453 24.443,-26.063 41.113,-18.564c38.38,17.238 26.958,74.418 -8.158,89.105c-64.025,23.012 -134.435,21.859 -201.687,20.856Z" style="fill-rule:nonzero;"></path><path d="M3256.371,1679.465c-31.882,-50.747 36.155,-83.461 67.891,-111.309c59.33,-45.582 121.245,-92.521 179.184,-138.095c7.29,-5.394 14.066,-11.55 21.294,-16.984c42.876,-25.491 62.959,43.879 31.212,67.036c-63.033,62.334 -127.163,124.864 -209.204,162.018c-27.203,15.063 -57.899,71.558 -90.376,37.334Z" style="fill-rule:nonzero;"></path><path d="M3218.496,1669.586c-6.246,-0.287 -12.518,-0.212 -18.764,-0.167c-3.334,0 -6.598,0.071 -9.861,0.071l-102.722,0c-44.409,-0.071 -88.747,-0.071 -133.086,-0.354c-40.862,-0.283 -81.868,-2.341 -122.587,-5.18c-49.376,-3.476 -98.609,-7.448 -147.914,-11.634c-87.044,-7.448 -174.373,-10.926 -261.702,-13.621c-90.451,-2.837 -180.902,-6.669 -271.351,-8.939c-44.197,-1.135 -88.322,-1.206 -132.59,-0.425c-44.907,0.708 -89.741,2.128 -134.648,2.837c-88.037,1.349 -176.147,-2.27 -264.043,-6.242c-88.039,-3.903 -176.078,-4.469 -264.186,-5.392c-41.502,-0.425 -82.93,-2.128 -124.432,-3.193c-46.325,-1.206 -92.721,-1.985 -139.115,-2.624c-81.3,-1.135 -162.741,-4.399 -243.968,-8.514c-9.295,-0.425 -18.588,-0.85 -27.81,-1.135c-2.341,-0.071 -4.753,-0.071 -7.094,0c-5.534,0.073 -11.209,0.214 -16.316,-0.992c-14.614,-3.405 -22.845,-16.601 -25.186,-30.647c-2.837,-17.736 7.662,-38.238 23.907,-46.042c8.443,-4.115 17.524,-3.547 26.675,-3.405c9.01,0.142 18.019,0.496 27.029,0.993c19.154,0.923 38.38,1.916 57.603,2.766c40.791,1.633 81.654,2.98 122.516,4.328c42.637,1.489 85.201,1.704 127.837,2.483c91.088,1.704 182.106,4.896 273.196,5.817c40.65,0.356 81.369,0.214 122.018,1.704c45.403,1.631 90.805,3.689 136.278,5.534c87.827,3.547 175.935,5.036 263.832,2.624c43.841,-1.206 87.754,-2.837 131.667,-2.483c43.77,0.354 87.542,0.923 131.311,2.553c49.518,1.774 99.036,3.547 148.552,5.25c40.933,1.418 81.937,2.199 122.872,3.972c45.403,1.916 90.805,3.619 136.208,6.74c48.664,3.476 97.33,7.45 145.996,11.563c85.627,7.379 171.395,10.784 257.376,10.784l170.684,0c9.861,0 19.723,0.071 29.582,0.142c6.598,0.071 14.543,0.071 20.645,2.98c5.428,2.608 9.342,5.695 12.782,9.89l0.554,0.467c0.296,0.394 0.592,0.754 0.888,1.128c12.742,14.986 11.859,38.312 1.17,54.349c-6.473,9.665 -17.929,16.899 -29.168,16.899c-5.083,0 -10.121,-1.482 -14.638,-4.885Z" style="fill-rule:nonzero;"></path><path d="M738.61,1562.96c5.988,-50.992 69.994,-52.471 65.692,2.977c-5.988,50.992 -69.994,52.471 -65.692,-2.977Z" style="fill-rule:nonzero;"></path><path d="M3560.9,4002.122c-112.56,-40.327 75.51,-353.856 113.655,-421.96c117.082,-200.071 267.546,-377.404 419.263,-551.782c-55.814,82.689 -114.581,166.887 -171.465,249.995c-102.419,155.907 -204.987,324.308 -278.517,492.83c-20.026,49.886 -43.674,99.944 -50.963,153.619c37.495,20.696 11.699,90.431 -31.972,77.299Z" style="fill-rule:nonzero;"></path><path d="M3681.356,3833.69c-24.488,-51.971 56.882,-142.293 81.234,-189.837c95.069,-145.586 209.967,-276.639 327.962,-403.941c0.212,-0.212 0.354,0.142 0.287,0.283c-90.83,137.43 -182.026,274.562 -267.076,415.653c-27.047,50.502 -58.466,98.605 -82.589,150.555c-5.445,25.22 -40.314,58.816 -59.819,27.287Z" style="fill-rule:nonzero;"></path><path d="M3527.293,3566.349c-100.187,-63.527 290.583,-622.065 346.271,-719.414c0.142,-0.212 0.354,0.071 0.281,0.283c-84.837,195.5 -180.704,385.987 -268.071,580.331c-10.495,26.217 -21.768,52.365 -28.747,79.796c5.693,28.894 -14.215,77.791 -49.734,59.003Z" style="fill-rule:nonzero;"></path><path d="M3546.202,3057.521c-36.104,-46.732 116.272,-224.492 148.486,-267.236c-27.906,71.95 -64.383,146.069 -94.917,213.679c-11.634,20.382 -11.619,54.801 -39.375,59.661c-5.301,1.061 -11.131,-1.998 -14.195,-6.104Z" style="fill-rule:nonzero;"></path><path d="M3766.069,4018.621c-86.59,-56.784 231.805,-462.285 280.081,-534.896c-69.112,144.146 -152.398,288.985 -220.344,432.103c-15.795,35.218 -24.763,74.015 -50.366,103.293c-2.76,1.629 -6.807,1.21 -9.371,-0.499Z" style="fill-rule:nonzero;"></path><path d="M3988.1,3904.83c-13.741,-35.692 17.949,-67.168 36.961,-93.733c55.578,-72.757 118.811,-143.338 182.387,-207.486c-54.143,94.937 -116.121,186.218 -175.51,277.596c-7.094,14.532 -29.719,46.367 -43.839,23.622Z" style="fill-rule:nonzero;"></path><path d="M617.451,3499.095c-12.981,-3.051 -19.865,-15.324 -21.779,-27.525c-1.282,-8.439 -0.841,-15.831 0.376,-23.815c1.507,-10.802 2.601,-21.606 3.363,-32.456c1.244,-28.918 1.397,-57.779 -0.194,-86.695c-2.74,-34.693 -7.076,-69.197 -13.299,-103.447c-6.936,-35.165 -16.23,-69.635 -25.859,-99.64c-11.917,-36.749 -24.971,-73.142 -39.23,-109.108c-15.324,-38.663 -32.988,-76.405 -49.462,-113.092c-38.412,-80.588 -75.918,-161.602 -113.35,-242.609c-0.071,-0.212 0.143,-0.496 0.285,-0.283c28.091,42.139 55.901,84.42 83.285,127.056c22.347,34.691 44.765,69.522 65.904,104.994c54.554,91.442 104.001,187.285 132.59,290.362c14.117,50.795 22.204,103.788 25.396,156.355c1.633,27.312 1.064,54.766 -0.496,82.079c-0.71,12.061 -2.199,24.192 -4.328,36.11c-1.135,6.102 -2.341,11.777 -5.18,17.382c-2.483,4.965 -5.959,9.081 -9.435,13.336c-5.463,6.932 -14.233,11.625 -23.088,11.627c-1.842,0 -3.683,-0.203 -5.501,-0.63Z" style="fill-rule:nonzero;"></path><path d="M301.509,2661.843c4.257,0 3.193,7.804 -0.852,7.804c-4.255,0 -3.193,-7.804 0.852,-7.804Z" style="fill-rule:nonzero;"></path><path d="M458.409,3477.322c5.988,-50.992 69.994,-52.471 65.692,2.977c-5.988,50.992 -69.994,52.471 -65.692,-2.977Z" style="fill-rule:nonzero;"></path><path d="M454.06,3541.286c-61.515,-32.249 -65.011,-148.862 -80.441,-210.813c-13.189,-64.76 -24.715,-129.8 -35.332,-195.047c38.115,79.404 71.939,164.101 98.908,249.018c9.932,28.869 18.373,58.733 34.873,84.754c12.518,16.971 23.146,38.345 22.22,59.67c-7.301,14.171 -26.25,16.592 -40.228,12.418Z" style="fill-rule:nonzero;"></path><path d="M440.74,3537.701c-16.648,-33.318 -8.817,-72.628 -10.355,-108.612c0.009,-69.598 0.343,-140.112 4.548,-209.14c-0.025,0.365 -0.049,0.748 -0.08,1.141c10.337,-156.984 33.963,-208.007 -49.728,-353.146c-4.834,-10.791 -12.177,-22.834 -15.962,-33.202c47.059,58.587 105.566,114.667 118.477,191.896c15.48,120.869 6.747,243.999 9.219,365.705c0.307,32.283 -1.945,64.76 0.748,96.969c8.935,17.682 3.474,41.914 -11.035,54.988c-14.391,12.947 -35.686,10.933 -45.831,-6.598Z" style="fill-rule:nonzero;"></path><path d="M373.434,3527.865c-33.049,-111.748 -105.53,-211.391 -210.486,-264.62c-53.922,-28.164 -111.111,-54.908 -162.948,-84.698c49.198,10.615 97.986,23.054 146.844,35.122c139.28,28.584 248.092,137.951 286.889,273.189c18.203,37.971 -36.1,89.703 -60.3,41.008Z" style="fill-rule:nonzero;"></path><path d="M347.219,3544.937c-59.595,-57.984 -145.177,-77.745 -218.573,-113.005c-42.139,-18.659 -83.995,-37.955 -125.424,-58.103c47.593,3.338 98.082,10.822 146.283,18.232c61.729,9.967 295.614,45.666 244.108,143.586c-9.633,14.44 -32.646,24.541 -46.394,9.289Z" style="fill-rule:nonzero;"></path><path d="M129.969,3634.89c50.669,-22.006 308.526,-161.629 327.042,-75.406c3.369,10.764 -7.68,19.263 -16.316,23.48c-9.404,4.279 -19.345,6.629 -29.724,5.957c-94.094,7.651 -187.883,36.776 -281.002,45.969Z" style="fill-rule:nonzero;"></path><path d="M476.151,3791.986c34.39,-43.339 177.241,-263.351 234.529,-213.109c-24.559,36.22 -57.256,63.687 -90.233,92.015c-46.634,41.431 -95.418,84.216 -144.296,121.094Z" style="fill-rule:nonzero;"></path><path d="M798.817,3695.918c0.011,-56.265 42.054,-147.703 109.742,-118.261c-51.93,21.016 -70.594,81.365 -109.553,118.461c-0.085,0.002 -0.191,-0.098 -0.189,-0.2Z" style="fill-rule:nonzero;"></path><path d="M2223.554,3886.998c12.502,-29.361 43.171,-46.316 66.475,-66.684c48.811,-37.37 101.209,-74.526 153.234,-104.994c-57.254,69.304 -121.014,132.813 -184.307,196.437c-20.462,18.789 -44.088,1.384 -35.401,-24.759Z" style="fill-rule:nonzero;"></path><path d="M2359.239,3890.127c-14.834,-28.271 35.641,-47.288 54.912,-30.222c-7.45,16.971 -24.387,33.863 -44.327,31.513c-3.291,2.372 -8.073,2.187 -10.584,-1.291Z" style="fill-rule:nonzero;"></path><path d="M2393.2,3908.382c-29.069,-44.324 120.406,-114.721 155.932,-118.403c-23.508,24.009 -48.014,47.004 -75.343,66.611c-22.046,18.09 -50.606,23.758 -70.085,41.943c5.672,2.9 11.737,5.111 17.732,7.223c-7.254,4.331 -19.421,4.299 -28.237,2.626Z" style="fill-rule:nonzero;"></path><path d="M2486.847,3935.491c-4.635,-27.207 21.88,-42.934 43.557,-51.717c49.156,-26.524 101.96,-52.126 153.66,-70.234c-56.661,49.253 -116.906,94.403 -181.681,132.094c-7.159,4.006 -14.605,-2.582 -15.537,-10.143Z" style="fill-rule:nonzero;"></path><path d="M2854.23,3946.66c-23.471,-167.016 188.052,-340.853 292.074,-454.022c-25.013,38.476 -53.571,77.573 -80.163,116.058c-59.735,85.215 -126.163,168.565 -157.489,269.11c-3.425,12.607 -6.148,25.282 -8.447,38.138c-3.006,22.216 -16.541,38.276 -14.115,59.165c-15.359,4.493 -28.097,-16.053 -31.862,-28.449Z" style="fill-rule:nonzero;"></path><path d="M3111.157,3940.794c-13.477,-113.241 116.094,-275.951 179.491,-367.334c-39.293,99.973 -87.836,195.685 -120.733,298.4c-7.935,34.706 -20.033,68.937 -35.056,100.432c-13.713,-2.023 -20.07,-20.01 -23.702,-31.498Z" style="fill-rule:nonzero;"></path><path d="M3456.509,3880.058c-10.065,-29.546 14.827,-60.423 42.493,-68.6c1.091,21.346 -7.666,44.654 -20.422,60.246c2.045,2.167 5.621,3.525 7.37,5.446c-6.456,7.851 -25.331,16.993 -29.441,2.908Z" style="fill-rule:nonzero;"></path><path d="M3569.852,3902.939c-32.343,-21.29 16.058,-82.493 37.317,-96.197c-7.958,24.229 -15.929,49.814 -31.822,69.364c-6.538,7.188 -9.484,18.417 -5.496,26.833Z" style="fill-rule:nonzero;"></path><path d="M598.454,2540.836c-60.983,-38.752 -96.301,-102.172 -132.485,-162.532c-51.51,-78.721 -108.312,-156.73 -158.727,-234.813c119.294,110.108 262.672,229.69 291.212,397.345Z" style="fill-rule:nonzero;"></path><path d="M481.425,2685.082c-34.944,-35.468 -68.532,-75.488 -95.342,-116.349c42.987,27.577 145.975,75.03 140.534,133.443c-17.315,1.458 -32.465,-4.368 -45.192,-17.095Z" style="fill-rule:nonzero;"></path></g></svg>